<?xml version="1.0" encoding="UTF-8" standalone="no"?> <!-- Created with Vectornator Pro for iOS (http://vectornator.io/) --><!DOCTYPE svg PUBLIC "-//W3C//DTD SVG 1.1//EN" "http://www.w3.org/Graphics/SVG/1.1/DTD/svg11.dtd">
<svg style="fill-rule:evenodd;clip-rule:evenodd;stroke-linecap:round;stroke-linejoin:round;" xmlns:vectornator="http://vectornator.io" xmlns:xlink="http://www.w3.org/1999/xlink" xmlns="http://www.w3.org/2000/svg" xml:space="preserve" version="1.1" viewBox="0 0 2048 2048">
<metadata>
<vectornator:setting key="RulersVisible" value="1"/>
<vectornator:setting key="SnapToEdges" value="0"/>
<vectornator:setting key="Units" value="Pixels"/>
<vectornator:setting key="DynamicGuides" value="0"/>
<vectornator:setting key="SnapToPoints" value="0"/>
<vectornator:setting key="SnapToGrid" value="0"/>
<vectornator:setting key="ShowGrid" value="0"/>
<vectornator:setting key="GridSpacing" value="36"/>
</metadata>
<defs/>
<g id="Ebene 2" vectornator:layerName="Ebene 2">
<path d="M-343.899-236.119L2318.97-236.119L2318.97+2326.64L-343.899+2326.64L-343.899-236.119Z" opacity="1" fill="#b4d1ff"/>
</g>
<g id="Ebene 1" vectornator:layerName="Ebene 1">
<path d="M862.979+453.128C862.979+453.128+1242+1892.25+1526.97+453.128" opacity="1" fill="#ffcf2d"/>
<path d="M384.398+1439.29C384.398+1186.68+796.507+981.905+1304.87+981.905C1813.23+981.905+2225.34+1186.68+2225.34+1439.29C2225.34+1691.9+1813.23+1896.68+1304.87+1896.68C796.507+1896.68+384.398+1691.9+384.398+1439.29Z" opacity="1" fill="#2b271a"/>
<path d="M1128.3+1822.5L1390.88+1822.5L1390.88+2448.47L1128.3+2448.47L1128.3+1822.5Z" opacity="1" fill="#2b271a"/>
<path d="M1170+1022.18L1278.78+990.672L1211.02+1454.63L1155.74+1403.08L1170+1022.18Z" opacity="1" fill="#ffcf2d"/>
<path d="M976.969+1404.95C976.969+1365.6+1068.83+1333.7+1182.15+1333.7C1295.47+1333.7+1387.33+1365.6+1387.33+1404.95C1387.33+1444.29+1295.47+1476.19+1182.15+1476.19C1068.83+1476.19+976.969+1444.29+976.969+1404.95Z" opacity="1" fill="#ffcf2d"/>
</g>
<g id="Ebene 1_2" vectornator:layerName="Ebene 1">
<path d="M862.979+453.128C862.979+453.128+1242+1892.25+1526.97+453.128" opacity="1" fill="#ffcf2d"/>
<path d="M1170+1022.18L1278.78+990.672L1211.02+1454.63L1155.74+1403.08L1170+1022.18Z" opacity="1" fill="#ffcf2d"/>
<path d="M976.969+1404.95C976.969+1365.6+1068.83+1333.7+1182.15+1333.7C1295.47+1333.7+1387.33+1365.6+1387.33+1404.95C1387.33+1444.29+1295.47+1476.19+1182.15+1476.19C1068.83+1476.19+976.969+1444.29+976.969+1404.95Z" opacity="1" fill="#ffcf2d"/>
</g>
<g id="Ebene 3" vectornator:layerName="Ebene 3">
<g opacity="1">
<path d="M162.589+163.431C162.589+165.861+163.048+168.102+163.966+170.154C164.884+172.206+166.126+173.988+167.692+175.5C169.258+177.012+171.08+178.186+173.159+179.023C175.238+179.86+177.439+180.279+179.761+180.279C182.083+180.279+184.283+179.86+186.362+179.023C188.441+178.186+190.277+177.012+191.87+175.5C193.463+173.988+194.719+172.206+195.637+170.154C196.555+168.102+197.014+165.861+197.014+163.431C197.014+161.001+196.555+158.76+195.637+156.708C194.719+154.656+193.463+152.874+191.87+151.362C190.277+149.85+188.441+148.675+186.362+147.838C184.283+147.001+182.083+146.583+179.761+146.583C177.439+146.583+175.238+147.001+173.159+147.838C171.08+148.675+169.258+149.85+167.692+151.362C166.126+152.874+164.884+154.656+163.966+156.708C163.048+158.76+162.589+161.001+162.589+163.431ZM145.984+163.431C145.984+158.895+146.821+154.669+148.495+150.754C150.169+146.839+152.491+143.424+155.461+140.508C158.431+137.592+161.981+135.31+166.112+133.663C170.243+132.016+174.793+131.193+179.761+131.193C184.675+131.193+189.211+132.016+193.369+133.663C197.527+135.31+201.104+137.592+204.101+140.508C207.098+143.424+209.434+146.839+211.108+150.754C212.782+154.669+213.619+158.895+213.619+163.431C213.619+167.967+212.782+172.192+211.108+176.107C209.434+180.022+207.098+183.438+204.101+186.354C201.104+189.27+197.527+191.551+193.369+193.198C189.211+194.845+184.675+195.669+179.761+195.669C174.793+195.669+170.243+194.845+166.112+193.198C161.981+191.551+158.431+189.27+155.461+186.354C152.491+183.438+150.169+180.022+148.495+176.107C146.821+172.192+145.984+167.967+145.984+163.431Z" opacity="1" fill="#ffcf2d"/>
<path d="M222.286+152.415L236.947+152.415L236.947+157.68C238.945+155.25+240.97+153.616+243.022+152.779C245.074+151.942+247.477+151.524+250.231+151.524C253.147+151.524+255.644+151.996+257.723+152.941C259.802+153.886+261.571+155.223+263.029+156.951C264.217+158.355+265.027+159.921+265.459+161.649C265.891+163.377+266.107+165.348+266.107+167.562L266.107+193.968L251.446+193.968L251.446+172.989C251.446+170.937+251.297+169.276+251+168.007C250.703+166.738+250.177+165.726+249.421+164.97C248.773+164.322+248.044+163.863+247.234+163.593C246.424+163.323+245.56+163.188+244.642+163.188C242.158+163.188+240.254+163.93+238.931+165.415C237.608+166.9+236.947+169.02+236.947+171.774L236.947+193.968L222.286+193.968L222.286+152.415Z" opacity="1" fill="#ffcf2d"/>
<path d="M306.445+167.157C305.959+165.105+304.96+163.458+303.448+162.216C301.936+160.974+300.1+160.353+297.94+160.353C295.672+160.353+293.822+160.947+292.391+162.135C290.96+163.323+290.056+164.997+289.678+167.157L306.445+167.157ZM289.273+175.662C289.273+181.98+292.243+185.139+298.183+185.139C301.369+185.139+303.772+183.843+305.392+181.251L319.567+181.251C316.705+190.755+309.55+195.507+298.102+195.507C294.592+195.507+291.379+194.98+288.463+193.927C285.547+192.874+283.049+191.376+280.97+189.432C278.891+187.488+277.285+185.166+276.151+182.466C275.017+179.766+274.45+176.742+274.45+173.394C274.45+169.938+274.99+166.819+276.07+164.038C277.15+161.257+278.689+158.895+280.687+156.951C282.685+155.007+285.101+153.508+287.936+152.455C290.771+151.402+293.971+150.876+297.535+150.876C301.045+150.876+304.204+151.402+307.012+152.455C309.82+153.508+312.196+155.034+314.14+157.032C316.084+159.03+317.569+161.473+318.595+164.362C319.621+167.251+320.134+170.505+320.134+174.123L320.134+175.662L289.273+175.662Z" opacity="1" fill="#ffcf2d"/>
<path d="M369.625+172.989C369.625+174.339+369.868+175.594+370.354+176.755C370.84+177.916+371.501+178.929+372.338+179.793C373.175+180.657+374.174+181.332+375.335+181.818C376.496+182.304+377.752+182.547+379.102+182.547C380.398+182.547+381.626+182.304+382.787+181.818C383.948+181.332+384.947+180.657+385.784+179.793C386.621+178.929+387.296+177.916+387.809+176.755C388.322+175.594+388.579+174.366+388.579+173.07C388.579+171.72+388.322+170.478+387.809+169.344C387.296+168.21+386.608+167.211+385.744+166.347C384.88+165.483+383.867+164.808+382.706+164.322C381.545+163.836+380.344+163.593+379.102+163.593C377.806+163.593+376.591+163.849+375.457+164.362C374.323+164.875+373.324+165.55+372.46+166.387C371.596+167.224+370.907+168.21+370.394+169.344C369.881+170.478+369.625+171.693+369.625+172.989ZM402.511+152.415L402.511+191.133C402.511+193.455+402.376+195.534+402.106+197.37C401.836+199.206+401.458+200.826+400.972+202.23C400.324+204.012+399.311+205.672+397.934+207.211C396.557+208.75+394.897+210.087+392.953+211.221C391.009+212.355+388.808+213.246+386.351+213.894C383.894+214.542+381.235+214.866+378.373+214.866C375.133+214.866+372.163+214.461+369.463+213.651C366.763+212.841+364.4+211.72+362.375+210.289C360.35+208.858+358.69+207.184+357.394+205.267C356.098+203.35+355.234+201.258+354.802+198.99L371.326+198.99C372.352+201.744+374.674+203.121+378.292+203.121C381.37+203.121+383.732+202.257+385.379+200.529C387.026+198.801+387.85+196.398+387.85+193.32L387.85+189.351C386.77+190.377+385.73+191.227+384.731+191.902C383.732+192.577+382.72+193.131+381.694+193.563C380.668+193.995+379.588+194.305+378.454+194.494C377.32+194.683+376.078+194.778+374.728+194.778C371.758+194.778+369.031+194.265+366.547+193.239C364.063+192.213+361.916+190.782+360.107+188.946C358.298+187.11+356.894+184.909+355.895+182.344C354.896+179.779+354.397+176.931+354.397+173.799C354.397+170.613+354.937+167.656+356.017+164.929C357.097+162.202+358.568+159.826+360.431+157.801C362.294+155.776+364.508+154.183+367.073+153.022C369.638+151.861+372.433+151.281+375.457+151.281C380.371+151.281+384.502+153.117+387.85+156.789L387.85+152.415L402.511+152.415Z" opacity="1" fill="#ffcf2d"/>
<path d="M426.973+173.07C426.973+174.42+427.216+175.675+427.702+176.836C428.188+177.997+428.849+179.01+429.686+179.874C430.523+180.738+431.522+181.413+432.683+181.899C433.844+182.385+435.1+182.628+436.45+182.628C437.746+182.628+438.974+182.385+440.135+181.899C441.296+181.413+442.295+180.738+443.132+179.874C443.969+179.01+444.644+178.011+445.157+176.877C445.67+175.743+445.927+174.528+445.927+173.232C445.927+171.936+445.67+170.707+445.157+169.546C444.644+168.385+443.969+167.373+443.132+166.509C442.295+165.645+441.296+164.97+440.135+164.484C438.974+163.998+437.746+163.755+436.45+163.755C435.1+163.755+433.844+163.998+432.683+164.484C431.522+164.97+430.523+165.645+429.686+166.509C428.849+167.373+428.188+168.358+427.702+169.465C427.216+170.572+426.973+171.774+426.973+173.07ZM445.441+152.415L460.183+152.415L460.183+193.968L445.441+193.968L445.441+189.351C442.309+193.293+438.07+195.264+432.724+195.264C429.7+195.264+426.919+194.71+424.381+193.603C421.843+192.496+419.629+190.944+417.739+188.946C415.849+186.948+414.377+184.599+413.324+181.899C412.271+179.199+411.745+176.256+411.745+173.07C411.745+170.1+412.258+167.278+413.284+164.605C414.31+161.932+415.741+159.597+417.577+157.599C419.413+155.601+421.6+154.021+424.138+152.86C426.676+151.699+429.484+151.119+432.562+151.119C437.746+151.119+442.039+152.928+445.441+156.546L445.441+152.415Z" opacity="1" fill="#ffcf2d"/>
<path d="M486.022+188.298L465.934+152.415L482.944+152.415L494.041+173.718L504.814+152.415L521.662+152.415L488.29+214.704L471.847+214.704L486.022+188.298Z" opacity="1" fill="#ffcf2d"/>
<path d="M587.353+173.313C587.353+172.017+587.11+170.788+586.624+169.627C586.138+168.466+585.463+167.454+584.599+166.59C583.735+165.726+582.736+165.037+581.602+164.524C580.468+164.011+579.226+163.755+577.876+163.755C576.58+163.755+575.365+163.998+574.231+164.484C573.097+164.97+572.111+165.645+571.274+166.509C570.437+167.373+569.762+168.385+569.249+169.546C568.736+170.707+568.48+171.936+568.48+173.232C568.48+174.528+568.723+175.743+569.209+176.877C569.695+178.011+570.37+178.996+571.234+179.833C572.098+180.67+573.11+181.345+574.271+181.858C575.432+182.371+576.661+182.628+577.957+182.628C579.253+182.628+580.468+182.385+581.602+181.899C582.736+181.413+583.721+180.738+584.558+179.874C585.395+179.01+586.07+178.011+586.583+176.877C587.096+175.743+587.353+174.555+587.353+173.313ZM568.885+126.738L568.885+156.546C572.341+152.928+576.661+151.119+581.845+151.119C584.923+151.119+587.744+151.699+590.309+152.86C592.874+154.021+595.061+155.587+596.87+157.558C598.679+159.529+600.097+161.851+601.123+164.524C602.149+167.197+602.662+170.046+602.662+173.07C602.662+176.148+602.135+179.037+601.082+181.737C600.029+184.437+598.558+186.786+596.668+188.784C594.778+190.782+592.55+192.361+589.985+193.522C587.42+194.683+584.653+195.264+581.683+195.264C576.283+195.264+572.017+193.293+568.885+189.351L568.885+193.968L554.224+193.968L554.224+126.738L568.885+126.738Z" opacity="1" fill="#ffcf2d"/>
<path d="M641.38+167.157C640.894+165.105+639.895+163.458+638.383+162.216C636.871+160.974+635.035+160.353+632.875+160.353C630.607+160.353+628.757+160.947+627.326+162.135C625.895+163.323+624.991+164.997+624.613+167.157L641.38+167.157ZM624.208+175.662C624.208+181.98+627.178+185.139+633.118+185.139C636.304+185.139+638.707+183.843+640.327+181.251L654.502+181.251C651.64+190.755+644.485+195.507+633.037+195.507C629.527+195.507+626.314+194.98+623.398+193.927C620.482+192.874+617.984+191.376+615.905+189.432C613.826+187.488+612.22+185.166+611.086+182.466C609.952+179.766+609.385+176.742+609.385+173.394C609.385+169.938+609.925+166.819+611.005+164.038C612.085+161.257+613.624+158.895+615.622+156.951C617.62+155.007+620.036+153.508+622.871+152.455C625.706+151.402+628.906+150.876+632.47+150.876C635.98+150.876+639.139+151.402+641.947+152.455C644.755+153.508+647.131+155.034+649.075+157.032C651.019+159.03+652.504+161.473+653.53+164.362C654.556+167.251+655.069+170.505+655.069+174.123L655.069+175.662L624.208+175.662Z" opacity="1" fill="#ffcf2d"/>
<path d="M693.787+167.157C693.301+165.105+692.302+163.458+690.79+162.216C689.278+160.974+687.442+160.353+685.282+160.353C683.014+160.353+681.164+160.947+679.733+162.135C678.302+163.323+677.398+164.997+677.02+167.157L693.787+167.157ZM676.615+175.662C676.615+181.98+679.585+185.139+685.525+185.139C688.711+185.139+691.114+183.843+692.734+181.251L706.909+181.251C704.047+190.755+696.892+195.507+685.444+195.507C681.934+195.507+678.721+194.98+675.805+193.927C672.889+192.874+670.391+191.376+668.312+189.432C666.233+187.488+664.627+185.166+663.493+182.466C662.359+179.766+661.792+176.742+661.792+173.394C661.792+169.938+662.332+166.819+663.412+164.038C664.492+161.257+666.031+158.895+668.029+156.951C670.027+155.007+672.443+153.508+675.278+152.455C678.113+151.402+681.313+150.876+684.877+150.876C688.387+150.876+691.546+151.402+694.354+152.455C697.162+153.508+699.538+155.034+701.482+157.032C703.426+159.03+704.911+161.473+705.937+164.362C706.963+167.251+707.476+170.505+707.476+174.123L707.476+175.662L676.615+175.662Z" opacity="1" fill="#ffcf2d"/>
<path d="M715.819+152.415L730.48+152.415L730.48+159.219C732.046+156.735+733.963+154.831+736.231+153.508C738.499+152.185+741.145+151.524+744.169+151.524C744.547+151.524+744.965+151.524+745.424+151.524C745.883+151.524+746.41+151.578+747.004+151.686L747.004+165.699C745.06+164.727+742.954+164.241+740.686+164.241C737.284+164.241+734.732+165.253+733.031+167.278C731.33+169.303+730.48+172.26+730.48+176.148L730.48+193.968L715.819+193.968L715.819+152.415Z" opacity="1" fill="#ffcf2d"/>
<path d="M814.153+173.313C814.153+172.017+813.923+170.788+813.464+169.627C813.005+168.466+812.344+167.454+811.48+166.59C810.616+165.726+809.603+165.037+808.442+164.524C807.281+164.011+806.026+163.755+804.676+163.755C803.38+163.755+802.165+163.998+801.031+164.484C799.897+164.97+798.911+165.645+798.074+166.509C797.237+167.373+796.562+168.385+796.049+169.546C795.536+170.707+795.28+171.936+795.28+173.232C795.28+174.528+795.523+175.743+796.009+176.877C796.495+178.011+797.17+178.996+798.034+179.833C798.898+180.67+799.91+181.345+801.071+181.858C802.232+182.371+803.461+182.628+804.757+182.628C806.053+182.628+807.268+182.385+808.402+181.899C809.536+181.413+810.521+180.738+811.358+179.874C812.195+179.01+812.87+178.011+813.383+176.877C813.896+175.743+814.153+174.555+814.153+173.313ZM795.685+214.704L781.024+214.704L781.024+152.415L795.685+152.415L795.685+157.032C798.817+153.09+803.083+151.119+808.483+151.119C811.453+151.119+814.22+151.699+816.785+152.86C819.35+154.021+821.578+155.601+823.468+157.599C825.358+159.597+826.829+161.946+827.882+164.646C828.935+167.346+829.462+170.235+829.462+173.313C829.462+176.391+828.935+179.253+827.882+181.899C826.829+184.545+825.371+186.867+823.508+188.865C821.645+190.863+819.445+192.429+816.907+193.563C814.369+194.697+811.615+195.264+808.645+195.264C803.461+195.264+799.141+193.482+795.685+189.918L795.685+214.704Z" opacity="1" fill="#ffcf2d"/>
<path d="M852.466+126.738L852.466+193.968L837.805+193.968L837.805+126.738L852.466+126.738Z" opacity="1" fill="#ffcf2d"/>
<path d="M892.885+167.157C892.399+165.105+891.4+163.458+889.888+162.216C888.376+160.974+886.54+160.353+884.38+160.353C882.112+160.353+880.262+160.947+878.831+162.135C877.4+163.323+876.496+164.997+876.118+167.157L892.885+167.157ZM875.713+175.662C875.713+181.98+878.683+185.139+884.623+185.139C887.809+185.139+890.212+183.843+891.832+181.251L906.007+181.251C903.145+190.755+895.99+195.507+884.542+195.507C881.032+195.507+877.819+194.98+874.903+193.927C871.987+192.874+869.489+191.376+867.41+189.432C865.331+187.488+863.725+185.166+862.591+182.466C861.457+179.766+860.89+176.742+860.89+173.394C860.89+169.938+861.43+166.819+862.51+164.038C863.59+161.257+865.129+158.895+867.127+156.951C869.125+155.007+871.541+153.508+874.376+152.455C877.211+151.402+880.411+150.876+883.975+150.876C887.485+150.876+890.644+151.402+893.452+152.455C896.26+153.508+898.636+155.034+900.58+157.032C902.524+159.03+904.009+161.473+905.035+164.362C906.061+167.251+906.574+170.505+906.574+174.123L906.574+175.662L875.713+175.662Z" opacity="1" fill="#ffcf2d"/>
<path d="M928.525+173.07C928.525+174.42+928.768+175.675+929.254+176.836C929.74+177.997+930.401+179.01+931.238+179.874C932.075+180.738+933.074+181.413+934.235+181.899C935.396+182.385+936.652+182.628+938.002+182.628C939.298+182.628+940.526+182.385+941.687+181.899C942.848+181.413+943.847+180.738+944.684+179.874C945.521+179.01+946.196+178.011+946.709+176.877C947.222+175.743+947.479+174.528+947.479+173.232C947.479+171.936+947.222+170.707+946.709+169.546C946.196+168.385+945.521+167.373+944.684+166.509C943.847+165.645+942.848+164.97+941.687+164.484C940.526+163.998+939.298+163.755+938.002+163.755C936.652+163.755+935.396+163.998+934.235+164.484C933.074+164.97+932.075+165.645+931.238+166.509C930.401+167.373+929.74+168.358+929.254+169.465C928.768+170.572+928.525+171.774+928.525+173.07ZM946.993+152.415L961.735+152.415L961.735+193.968L946.993+193.968L946.993+189.351C943.861+193.293+939.622+195.264+934.276+195.264C931.252+195.264+928.471+194.71+925.933+193.603C923.395+192.496+921.181+190.944+919.291+188.946C917.401+186.948+915.929+184.599+914.876+181.899C913.823+179.199+913.297+176.256+913.297+173.07C913.297+170.1+913.81+167.278+914.836+164.605C915.862+161.932+917.293+159.597+919.129+157.599C920.965+155.601+923.152+154.021+925.69+152.86C928.228+151.699+931.036+151.119+934.114+151.119C939.298+151.119+943.591+152.928+946.993+156.546L946.993+152.415Z" opacity="1" fill="#ffcf2d"/>
<path d="M999.238+163.107C996.538+161.703+993.892+161.001+991.3+161.001C989.95+161.001+988.856+161.271+988.019+161.811C987.182+162.351+986.764+163.08+986.764+163.998C986.764+164.484+986.831+164.875+986.966+165.172C987.101+165.469+987.398+165.753+987.857+166.023C988.316+166.293+988.991+166.536+989.882+166.752C990.773+166.968+991.948+167.238+993.406+167.562C997.456+168.372+1000.48+169.816+1002.48+171.895C1004.48+173.974+1005.47+176.634+1005.47+179.874C1005.47+182.304+1004.99+184.491+1004.02+186.435C1003.04+188.379+1001.69+190.012+999.967+191.335C998.239+192.658+996.16+193.684+993.73+194.413C991.3+195.142+988.627+195.507+985.711+195.507C980.095+195.507+974.56+193.914+969.106+190.728L974.452+180.36C978.556+183.168+982.444+184.572+986.116+184.572C987.466+184.572+988.573+184.275+989.437+183.681C990.301+183.087+990.733+182.331+990.733+181.413C990.733+180.873+990.665+180.427+990.53+180.076C990.395+179.725+990.112+179.401+989.68+179.104C989.248+178.807+988.613+178.537+987.776+178.294C986.939+178.051+985.846+177.795+984.496+177.525C979.96+176.607+976.787+175.243+974.978+173.434C973.169+171.625+972.265+169.128+972.265+165.942C972.265+163.62+972.697+161.527+973.561+159.664C974.425+157.801+975.667+156.222+977.287+154.926C978.907+153.63+980.864+152.631+983.159+151.929C985.454+151.227+988.006+150.876+990.814+150.876C995.404+150.876+999.859+151.767+1004.18+153.549L999.238+163.107Z" opacity="1" fill="#ffcf2d"/>
<path d="M1043.3+167.157C1042.82+165.105+1041.82+163.458+1040.3+162.216C1038.79+160.974+1036.96+160.353+1034.8+160.353C1032.53+160.353+1030.68+160.947+1029.25+162.135C1027.82+163.323+1026.91+164.997+1026.53+167.157L1043.3+167.157ZM1026.13+175.662C1026.13+181.98+1029.1+185.139+1035.04+185.139C1038.23+185.139+1040.63+183.843+1042.25+181.251L1056.42+181.251C1053.56+190.755+1046.41+195.507+1034.96+195.507C1031.45+195.507+1028.24+194.98+1025.32+193.927C1022.4+192.874+1019.91+191.376+1017.83+189.432C1015.75+187.488+1014.14+185.166+1013.01+182.466C1011.87+179.766+1011.31+176.742+1011.31+173.394C1011.31+169.938+1011.85+166.819+1012.93+164.038C1014.01+161.257+1015.55+158.895+1017.54+156.951C1019.54+155.007+1021.96+153.508+1024.79+152.455C1027.63+151.402+1030.83+150.876+1034.39+150.876C1037.9+150.876+1041.06+151.402+1043.87+152.455C1046.68+153.508+1049.05+155.034+1051+157.032C1052.94+159.03+1054.43+161.473+1055.45+164.362C1056.48+167.251+1056.99+170.505+1056.99+174.123L1056.99+175.662L1026.13+175.662Z" opacity="1" fill="#ffcf2d"/>
</g>
</g>
</svg>
