<?xml version="1.0" encoding="UTF-8" standalone="no"?> <!-- Created with Vectornator Pro for iOS (http://vectornator.io/) --><!DOCTYPE svg PUBLIC "-//W3C//DTD SVG 1.1//EN" "http://www.w3.org/Graphics/SVG/1.1/DTD/svg11.dtd">
<svg style="fill-rule:evenodd;clip-rule:evenodd;stroke-linecap:round;stroke-linejoin:round;" xmlns:vectornator="http://vectornator.io" xmlns:xlink="http://www.w3.org/1999/xlink" xmlns="http://www.w3.org/2000/svg" xml:space="preserve" version="1.1" viewBox="0 0 2048 2048">
<metadata>
<vectornator:setting key="RulersVisible" value="1"/>
<vectornator:setting key="SnapToEdges" value="0"/>
<vectornator:setting key="Units" value="Pixels"/>
<vectornator:setting key="DynamicGuides" value="0"/>
<vectornator:setting key="SnapToPoints" value="0"/>
<vectornator:setting key="SnapToGrid" value="0"/>
<vectornator:setting key="ShowGrid" value="0"/>
<vectornator:setting key="GridSpacing" value="36"/>
</metadata>
<defs/>
<g id="Ebene 2" vectornator:layerName="Ebene 2">
<path d="M-345.596-193.593L2313.87-193.593L2313.87+2261.53L-345.596+2261.53L-345.596-193.593Z" opacity="1" fill="#c6f0fa"/>
<path d="M1452.19+25.924C1452.19-298.081+1713.28-560.739+2035.35-560.739C2357.43-560.739+2618.52-298.081+2618.52+25.924C2618.52+349.929+2357.43+612.587+2035.35+612.587C1713.28+612.587+1452.19+349.929+1452.19+25.924Z" opacity="1" fill="#ffcf2d"/>
</g>
<g id="Ebene 1" vectornator:layerName="Ebene 1">
<path d="M-664.883+1944.79C-664.883+1944.79-813.827+1931.95+359.754+1307.92C513.032+1226.42+2070.05+550.36+1425.48+1146.14C777.36+1745.2+1540.14+1512.17+2118.84+1931.95" opacity="1" fill="#eb289c"/>
<path d="M-1448.13+1931.95C-1448.13+1931.95-1597.07+1919.11-423.49+1295.08C-270.212+1213.58+1286.81+537.52+642.235+1133.3C-5.88361+1732.36+756.901+1499.33+1335.6+1919.11" opacity="1" fill="#28ebc3"/>
<path d="M-366.993+2127.12C-366.993+2127.12-515.938+2114.28+657.643+1490.25C810.921+1408.75+2367.94+732.688+1723.37+1328.47C1075.25+1927.52+1838.03+1694.5+2416.73+2114.28" opacity="1" fill="#ffcf2d"/>
<g opacity="1">
<path d="M809.785+1919.41L831.843+1806.74L867.815+1888.19L905.076+1806.74L924.894+1919.41L908.673+1919.41L898.56+1856.15L867.543+1924.23L837.408+1856.08L826.142+1919.41L809.785+1919.41Z" opacity="1" fill="#eb289c"/>
<path d="M962.902+1856.42L1003.69+1814.61L1024.8+1814.61L977.427+1862.06L1025.07+1919.41L1003.9+1919.41L966.16+1872.78L962.902+1876.04L962.902+1919.41L947.088+1919.41L947.088+1814.61L962.902+1814.61L962.902+1856.42Z" opacity="1" fill="#eb289c"/>
<path d="M1039.19+1919.41L1039.19+1807.49L1115.61+1887.44L1115.61+1814.61L1131.43+1814.61L1131.43+1925.79L1055+1846.04L1055+1919.41L1039.19+1919.41Z" opacity="1" fill="#eb289c"/>
<path d="M1156.54+1919.41L1156.54+1814.61L1178.53+1814.61C1189.07+1814.61+1197.4+1815.65+1203.51+1817.74C1210.07+1819.77+1216.02+1823.23+1221.36+1828.12C1232.17+1837.98+1237.58+1850.95+1237.58+1867.01C1237.58+1883.12+1231.94+1896.15+1220.68+1906.1C1215.02+1911.08+1209.09+1914.54+1202.89+1916.49C1197.1+1918.43+1188.89+1919.41+1178.26+1919.41L1156.54+1919.41ZM1172.35+1904.54L1179.48+1904.54C1186.58+1904.54+1192.49+1903.8+1197.19+1902.3C1201.9+1900.72+1206.15+1898.21+1209.95+1894.77C1217.74+1887.67+1221.63+1878.41+1221.63+1867.01C1221.63+1855.52+1217.78+1846.2+1210.09+1839.05C1203.17+1832.67+1192.96+1829.48+1179.48+1829.48L1172.35+1829.48L1172.35+1904.54Z" opacity="1" fill="#eb289c"/>
<path d="M1316.71+1830.22L1303.89+1837.83C1301.49+1833.66+1299.2+1830.95+1297.03+1829.68C1294.77+1828.23+1291.85+1827.51+1288.28+1827.51C1283.89+1827.51+1280.24+1828.75+1277.35+1831.24C1274.45+1833.69+1273.01+1836.76+1273.01+1840.47C1273.01+1845.59+1276.81+1849.7+1284.41+1852.83L1294.86+1857.1C1303.37+1860.54+1309.59+1864.74+1313.52+1869.69C1317.46+1874.65+1319.43+1880.72+1319.43+1887.91C1319.43+1897.55+1316.22+1905.52+1309.79+1911.81C1303.32+1918.14+1295.29+1921.31+1285.7+1921.31C1276.6+1921.31+1269.09+1918.62+1263.16+1913.23C1257.33+1907.85+1253.68+1900.27+1252.24+1890.49L1268.25+1886.96C1268.98+1893.12+1270.25+1897.37+1272.05+1899.72C1275.31+1904.25+1280.06+1906.51+1286.31+1906.51C1291.24+1906.51+1295.33+1904.86+1298.59+1901.56C1301.85+1898.25+1303.48+1894.07+1303.48+1889C1303.48+1886.96+1303.2+1885.1+1302.63+1883.4C1302.07+1881.7+1301.18+1880.14+1299.98+1878.72C1298.78+1877.29+1297.24+1875.96+1295.33+1874.71C1293.43+1873.47+1291.17+1872.28+1288.55+1871.15L1278.43+1866.94C1264.09+1860.88+1256.92+1852.01+1256.92+1840.34C1256.92+1832.46+1259.93+1825.88+1265.95+1820.59C1271.96+1815.25+1279.45+1812.58+1288.41+1812.58C1300.49+1812.58+1309.93+1818.46+1316.71+1830.22Z" opacity="1" fill="#eb289c"/>
</g>
<g opacity="1">
<path d="M77.9771+95.0257C77.9771+97.4557+78.4361+99.6967+79.3541+101.749C80.2721+103.801+81.5141+105.583+83.0801+107.095C84.6461+108.607+86.4686+109.781+88.5476+110.618C90.6266+111.455+92.8271+111.874+95.1491+111.874C97.4711+111.874+99.6716+111.455+101.751+110.618C103.83+109.781+105.666+108.607+107.259+107.095C108.852+105.583+110.107+103.801+111.025+101.749C111.943+99.6967+112.402+97.4557+112.402+95.0257C112.402+92.5957+111.943+90.3547+111.025+88.3027C110.107+86.2507+108.852+84.4687+107.259+82.9567C105.666+81.4447+103.83+80.2702+101.751+79.4332C99.6716+78.5962+97.4711+78.1777+95.1491+78.1777C92.8271+78.1777+90.6266+78.5962+88.5476+79.4332C86.4686+80.2702+84.6461+81.4447+83.0801+82.9567C81.5141+84.4687+80.2721+86.2507+79.3541+88.3027C78.4361+90.3547+77.9771+92.5957+77.9771+95.0257ZM61.3721+95.0257C61.3721+90.4897+62.2091+86.2642+63.8831+82.3492C65.5571+78.4342+67.8791+75.0187+70.8491+72.1027C73.8191+69.1867+77.3696+66.9052+81.5006+65.2582C85.6316+63.6112+90.1811+62.7877+95.1491+62.7877C100.063+62.7877+104.599+63.6112+108.757+65.2582C112.915+66.9052+116.493+69.1867+119.49+72.1027C122.487+75.0187+124.822+78.4342+126.496+82.3492C128.17+86.2642+129.007+90.4897+129.007+95.0257C129.007+99.5617+128.17+103.787+126.496+107.702C124.822+111.617+122.487+115.033+119.49+117.949C116.493+120.865+112.915+123.146+108.757+124.793C104.599+126.44+100.063+127.264+95.1491+127.264C90.1811+127.264+85.6316+126.44+81.5006+124.793C77.3696+123.146+73.8191+120.865+70.8491+117.949C67.8791+115.033+65.5571+111.617+63.8831+107.702C62.2091+103.787+61.3721+99.5617+61.3721+95.0257Z" opacity="1" fill="#ffcf2d"/>
<path d="M137.674+84.0097L152.335+84.0097L152.335+89.2747C154.333+86.8447+156.358+85.2112+158.41+84.3742C160.462+83.5372+162.865+83.1187+165.619+83.1187C168.535+83.1187+171.033+83.5912+173.112+84.5362C175.191+85.4812+176.959+86.8177+178.417+88.5457C179.605+89.9497+180.415+91.5157+180.847+93.2437C181.279+94.9717+181.495+96.9427+181.495+99.1567L181.495+125.563L166.834+125.563L166.834+104.584C166.834+102.532+166.686+100.871+166.389+99.6022C166.092+98.3332+165.565+97.3207+164.809+96.5647C164.161+95.9167+163.432+95.4577+162.622+95.1877C161.812+94.9177+160.948+94.7827+160.03+94.7827C157.546+94.7827+155.643+95.5252+154.32+97.0102C152.997+98.4952+152.335+100.615+152.335+103.369L152.335+125.563L137.674+125.563L137.674+84.0097Z" opacity="1" fill="#ffcf2d"/>
<path d="M206.119+58.3327L206.119+125.563L191.458+125.563L191.458+58.3327L206.119+58.3327Z" opacity="1" fill="#ffcf2d"/>
<path d="M232.039+119.893L211.951+84.0097L228.961+84.0097L240.058+105.313L250.831+84.0097L267.679+84.0097L234.307+146.299L217.864+146.299L232.039+119.893Z" opacity="1" fill="#ffcf2d"/>
<path d="M316.603+96.2407L316.603+125.563L301.942+125.563L301.942+96.2407L297.082+96.2407L297.082+84.0097L301.942+84.0097L301.942+71.5357L316.603+71.5357L316.603+84.0097L324.946+84.0097L324.946+96.2407L316.603+96.2407Z" opacity="1" fill="#ffcf2d"/>
<path d="M332.317+58.3327L346.978+58.3327L346.978+89.2747C348.976+86.8447+351.001+85.2112+353.053+84.3742C355.105+83.5372+357.508+83.1187+360.262+83.1187C365.5+83.1187+369.456+84.5632+372.129+87.4522C374.802+90.3412+376.138+94.2427+376.138+99.1567L376.138+125.563L361.477+125.563L361.477+104.584C361.477+102.478+361.315+100.777+360.991+99.4807C360.667+98.1847+360.127+97.1857+359.371+96.4837C358.075+95.3497+356.509+94.7827+354.673+94.7827C352.189+94.7827+350.286+95.5252+348.963+97.0102C347.64+98.4952+346.978+100.615+346.978+103.369L346.978+125.563L332.317+125.563L332.317+58.3327Z" opacity="1" fill="#ffcf2d"/>
<path d="M416.476+98.7517C415.99+96.6997+414.991+95.0527+413.479+93.8107C411.967+92.5687+410.131+91.9477+407.971+91.9477C405.703+91.9477+403.854+92.5417+402.423+93.7297C400.992+94.9177+400.087+96.5917+399.709+98.7517L416.476+98.7517ZM399.304+107.257C399.304+113.575+402.274+116.734+408.214+116.734C411.4+116.734+413.803+115.438+415.423+112.846L429.598+112.846C426.736+122.35+419.581+127.102+408.133+127.102C404.623+127.102+401.41+126.575+398.494+125.522C395.578+124.469+393.081+122.971+391.002+121.027C388.923+119.083+387.316+116.761+386.182+114.061C385.048+111.361+384.481+108.337+384.481+104.989C384.481+101.533+385.021+98.4142+386.101+95.6332C387.181+92.8522+388.72+90.4897+390.718+88.5457C392.716+86.6017+395.133+85.1032+397.968+84.0502C400.803+82.9972+404.002+82.4707+407.566+82.4707C411.076+82.4707+414.235+82.9972+417.043+84.0502C419.851+85.1032+422.227+86.6287+424.171+88.6267C426.115+90.6247+427.6+93.0682+428.626+95.9572C429.652+98.8462+430.165+102.1+430.165+105.718L430.165+107.257L399.304+107.257Z" opacity="1" fill="#ffcf2d"/>
<path d="M493.588+94.7017C490.888+93.2977+488.242+92.5957+485.65+92.5957C484.3+92.5957+483.207+92.8657+482.37+93.4057C481.533+93.9457+481.114+94.6747+481.114+95.5927C481.114+96.0787+481.182+96.4702+481.317+96.7672C481.452+97.0642+481.749+97.3477+482.208+97.6177C482.667+97.8877+483.342+98.1307+484.233+98.3467C485.124+98.5627+486.298+98.8327+487.756+99.1567C491.806+99.9667+494.83+101.411+496.828+103.49C498.826+105.569+499.825+108.229+499.825+111.469C499.825+113.899+499.339+116.086+498.367+118.03C497.395+119.974+496.045+121.607+494.317+122.93C492.589+124.253+490.51+125.279+488.08+126.008C485.65+126.737+482.977+127.102+480.061+127.102C474.445+127.102+468.91+125.509+463.456+122.323L468.802+111.955C472.906+114.763+476.794+116.167+480.466+116.167C481.816+116.167+482.923+115.87+483.787+115.276C484.651+114.682+485.083+113.926+485.083+113.008C485.083+112.468+485.016+112.022+484.881+111.671C484.746+111.32+484.462+110.996+484.03+110.699C483.598+110.402+482.964+110.132+482.127+109.889C481.29+109.646+480.196+109.39+478.846+109.12C474.31+108.202+471.138+106.838+469.329+105.029C467.52+103.22+466.615+100.723+466.615+97.5367C466.615+95.2147+467.047+93.1222+467.911+91.2592C468.775+89.3962+470.017+87.8167+471.637+86.5207C473.257+85.2247+475.215+84.2257+477.51+83.5237C479.805+82.8217+482.356+82.4707+485.164+82.4707C489.754+82.4707+494.209+83.3617+498.529+85.1437L493.588+94.7017Z" opacity="1" fill="#ffcf2d"/>
<path d="M521.938+84.0097L521.938+107.419C521.938+112.549+524.422+115.114+529.39+115.114C534.358+115.114+536.842+112.549+536.842+107.419L536.842+84.0097L551.503+84.0097L551.503+110.254C551.503+115.87+549.654+120.082+545.955+122.89C542.256+125.698+536.734+127.102+529.39+127.102C522.046+127.102+516.525+125.698+512.826+122.89C509.127+120.082+507.277+115.87+507.277+110.254L507.277+84.0097L521.938+84.0097Z" opacity="1" fill="#ffcf2d"/>
<path d="M561.466+84.0097L576.127+84.0097L576.127+89.2747C578.125+86.8447+580.15+85.2112+582.202+84.3742C584.254+83.5372+586.657+83.1187+589.411+83.1187C592.327+83.1187+594.825+83.5912+596.904+84.5362C598.983+85.4812+600.751+86.8177+602.209+88.5457C603.397+89.9497+604.207+91.5157+604.639+93.2437C605.071+94.9717+605.287+96.9427+605.287+99.1567L605.287+125.563L590.626+125.563L590.626+104.584C590.626+102.532+590.478+100.871+590.181+99.6022C589.884+98.3332+589.357+97.3207+588.601+96.5647C587.953+95.9167+587.224+95.4577+586.414+95.1877C585.604+94.9177+584.74+94.7827+583.822+94.7827C581.338+94.7827+579.435+95.5252+578.112+97.0102C576.789+98.4952+576.127+100.615+576.127+103.369L576.127+125.563L561.466+125.563L561.466+84.0097Z" opacity="1" fill="#ffcf2d"/>
<path d="M674.137+97.4557C671.599+95.7277+669.034+94.8637+666.442+94.8637C665.038+94.8637+663.729+95.1067+662.514+95.5927C661.299+96.0787+660.232+96.7672+659.314+97.6582C658.396+98.5492+657.681+99.6022+657.168+100.817C656.655+102.032+656.398+103.396+656.398+104.908C656.398+106.366+656.655+107.702+657.168+108.917C657.681+110.132+658.383+111.185+659.274+112.076C660.165+112.967+661.231+113.656+662.473+114.142C663.715+114.628+665.038+114.871+666.442+114.871C669.196+114.871+671.761+113.926+674.137+112.036L674.137+124.51C670.519+126.076+667.09+126.859+663.85+126.859C660.826+126.859+657.951+126.346+655.224+125.32C652.497+124.294+650.094+122.822+648.015+120.905C645.936+118.988+644.275+116.693+643.033+114.02C641.791+111.347+641.17+108.364+641.17+105.07C641.17+101.776+641.764+98.7652+642.952+96.0382C644.14+93.3112+645.76+90.9622+647.812+88.9912C649.864+87.0202+652.308+85.4812+655.143+84.3742C657.978+83.2672+661.015+82.7137+664.255+82.7137C667.819+82.7137+671.113+83.4697+674.137+84.9817L674.137+97.4557Z" opacity="1" fill="#ffcf2d"/>
<path d="M696.088+104.665C696.088+106.015+696.331+107.27+696.817+108.431C697.303+109.592+697.965+110.605+698.802+111.469C699.639+112.333+700.638+113.008+701.799+113.494C702.96+113.98+704.215+114.223+705.565+114.223C706.861+114.223+708.09+113.98+709.251+113.494C710.412+113.008+711.411+112.333+712.248+111.469C713.085+110.605+713.76+109.606+714.273+108.472C714.786+107.338+715.042+106.123+715.042+104.827C715.042+103.531+714.786+102.302+714.273+101.141C713.76+99.9802+713.085+98.9677+712.248+98.1037C711.411+97.2397+710.412+96.5647+709.251+96.0787C708.09+95.5927+706.861+95.3497+705.565+95.3497C704.215+95.3497+702.96+95.5927+701.799+96.0787C700.638+96.5647+699.639+97.2397+698.802+98.1037C697.965+98.9677+697.303+99.9532+696.817+101.06C696.331+102.167+696.088+103.369+696.088+104.665ZM714.556+84.0097L729.298+84.0097L729.298+125.563L714.556+125.563L714.556+120.946C711.424+124.888+707.185+126.859+701.839+126.859C698.815+126.859+696.034+126.305+693.496+125.198C690.958+124.091+688.744+122.539+686.854+120.541C684.964+118.543+683.493+116.194+682.44+113.494C681.387+110.794+680.86+107.851+680.86+104.665C680.86+101.695+681.373+98.8732+682.399+96.2002C683.425+93.5272+684.856+91.1917+686.692+89.1937C688.528+87.1957+690.715+85.6162+693.253+84.4552C695.791+83.2942+698.599+82.7137+701.677+82.7137C706.861+82.7137+711.154+84.5227+714.556+88.1407L714.556+84.0097Z" opacity="1" fill="#ffcf2d"/>
<path d="M739.261+84.0097L753.922+84.0097L753.922+89.2747C755.92+86.8447+757.945+85.2112+759.997+84.3742C762.049+83.5372+764.452+83.1187+767.206+83.1187C770.122+83.1187+772.62+83.5912+774.699+84.5362C776.778+85.4812+778.546+86.8177+780.004+88.5457C781.192+89.9497+782.002+91.5157+782.434+93.2437C782.866+94.9717+783.082+96.9427+783.082+99.1567L783.082+125.563L768.421+125.563L768.421+104.584C768.421+102.532+768.273+100.871+767.976+99.6022C767.679+98.3332+767.152+97.3207+766.396+96.5647C765.748+95.9167+765.019+95.4577+764.209+95.1877C763.399+94.9177+762.535+94.7827+761.617+94.7827C759.133+94.7827+757.23+95.5252+755.907+97.0102C754.584+98.4952+753.922+100.615+753.922+103.369L753.922+125.563L739.261+125.563L739.261+84.0097Z" opacity="1" fill="#ffcf2d"/>
<path d="M848.125+94.7017C845.425+93.2977+842.779+92.5957+840.187+92.5957C838.837+92.5957+837.744+92.8657+836.907+93.4057C836.07+93.9457+835.651+94.6747+835.651+95.5927C835.651+96.0787+835.719+96.4702+835.854+96.7672C835.989+97.0642+836.286+97.3477+836.745+97.6177C837.204+97.8877+837.879+98.1307+838.77+98.3467C839.661+98.5627+840.835+98.8327+842.293+99.1567C846.343+99.9667+849.367+101.411+851.365+103.49C853.363+105.569+854.362+108.229+854.362+111.469C854.362+113.899+853.876+116.086+852.904+118.03C851.932+119.974+850.582+121.607+848.854+122.93C847.126+124.253+845.047+125.279+842.617+126.008C840.187+126.737+837.514+127.102+834.598+127.102C828.982+127.102+823.447+125.509+817.993+122.323L823.339+111.955C827.443+114.763+831.331+116.167+835.003+116.167C836.353+116.167+837.46+115.87+838.324+115.276C839.188+114.682+839.62+113.926+839.62+113.008C839.62+112.468+839.553+112.022+839.418+111.671C839.283+111.32+838.999+110.996+838.567+110.699C838.135+110.402+837.501+110.132+836.664+109.889C835.827+109.646+834.733+109.39+833.383+109.12C828.847+108.202+825.675+106.838+823.866+105.029C822.057+103.22+821.152+100.723+821.152+97.5367C821.152+95.2147+821.584+93.1222+822.448+91.2592C823.312+89.3962+824.554+87.8167+826.174+86.5207C827.794+85.2247+829.752+84.2257+832.047+83.5237C834.342+82.8217+836.893+82.4707+839.701+82.4707C844.291+82.4707+848.746+83.3617+853.066+85.1437L848.125+94.7017Z" opacity="1" fill="#ffcf2d"/>
<path d="M879.31+96.2407L879.31+125.563L864.649+125.563L864.649+96.2407L859.789+96.2407L859.789+84.0097L864.649+84.0097L864.649+71.5357L879.31+71.5357L879.31+84.0097L887.653+84.0097L887.653+96.2407L879.31+96.2407Z" opacity="1" fill="#ffcf2d"/>
<path d="M907.741+104.584C907.741+105.988+907.998+107.27+908.511+108.431C909.024+109.592+909.699+110.605+910.536+111.469C911.373+112.333+912.372+113.008+913.533+113.494C914.694+113.98+915.922+114.223+917.218+114.223C918.514+114.223+919.743+113.98+920.904+113.494C922.065+113.008+923.064+112.333+923.901+111.469C924.738+110.605+925.413+109.592+925.926+108.431C926.439+107.27+926.695+106.015+926.695+104.665C926.695+103.369+926.439+102.14+925.926+100.979C925.413+99.8182+924.738+98.8057+923.901+97.9417C923.064+97.0777+922.065+96.4027+920.904+95.9167C919.743+95.4307+918.514+95.1877+917.218+95.1877C915.922+95.1877+914.694+95.4307+913.533+95.9167C912.372+96.4027+911.373+97.0777+910.536+97.9417C909.699+98.8057+909.024+99.8047+908.511+100.939C907.998+102.073+907.741+103.288+907.741+104.584ZM892.27+104.422C892.27+101.344+892.891+98.4682+894.133+95.7952C895.375+93.1222+897.103+90.8002+899.317+88.8292C901.531+86.8582+904.164+85.3057+907.215+84.1717C910.266+83.0377+913.6+82.4707+917.218+82.4707C920.782+82.4707+924.09+83.0242+927.141+84.1312C930.192+85.2382+932.838+86.7772+935.079+88.7482C937.32+90.7192+939.061+93.0682+940.303+95.7952C941.545+98.5222+942.166+101.533+942.166+104.827C942.166+108.121+941.532+111.131+940.263+113.858C938.994+116.585+937.252+118.934+935.038+120.905C932.824+122.876+930.165+124.402+927.06+125.482C923.955+126.562+920.593+127.102+916.975+127.102C913.411+127.102+910.117+126.562+907.093+125.482C904.069+124.402+901.464+122.863+899.277+120.865C897.09+118.867+895.375+116.477+894.133+113.696C892.891+110.915+892.27+107.824+892.27+104.422Z" opacity="1" fill="#ffcf2d"/>
<path d="M983.719+104.908C983.719+103.612+983.49+102.383+983.031+101.222C982.572+100.061+981.91+99.0487+981.046+98.1847C980.182+97.3207+979.17+96.6322+978.009+96.1192C976.848+95.6062+975.592+95.3497+974.242+95.3497C972.946+95.3497+971.731+95.5927+970.597+96.0787C969.463+96.5647+968.478+97.2397+967.641+98.1037C966.804+98.9677+966.129+99.9802+965.616+101.141C965.103+102.302+964.846+103.531+964.846+104.827C964.846+106.123+965.089+107.338+965.575+108.472C966.061+109.606+966.736+110.591+967.6+111.428C968.464+112.265+969.477+112.94+970.638+113.453C971.799+113.966+973.027+114.223+974.323+114.223C975.619+114.223+976.834+113.98+977.968+113.494C979.102+113.008+980.088+112.333+980.925+111.469C981.762+110.605+982.437+109.606+982.95+108.472C983.463+107.338+983.719+106.15+983.719+104.908ZM965.251+146.299L950.59+146.299L950.59+84.0097L965.251+84.0097L965.251+88.6267C968.383+84.6847+972.649+82.7137+978.049+82.7137C981.019+82.7137+983.787+83.2942+986.352+84.4552C988.917+85.6162+991.144+87.1957+993.034+89.1937C994.924+91.1917+996.396+93.5407+997.449+96.2407C998.502+98.9407+999.028+101.83+999.028+104.908C999.028+107.986+998.502+110.848+997.449+113.494C996.396+116.14+994.938+118.462+993.075+120.46C991.212+122.458+989.011+124.024+986.473+125.158C983.935+126.292+981.181+126.859+978.211+126.859C973.027+126.859+968.707+125.077+965.251+121.513L965.251+146.299Z" opacity="1" fill="#ffcf2d"/>
<path d="M1049.57+84.0097L1049.57+107.419C1049.57+112.549+1052.06+115.114+1057.02+115.114C1061.99+115.114+1064.48+112.549+1064.48+107.419L1064.48+84.0097L1079.14+84.0097L1079.14+110.254C1079.14+115.87+1077.29+120.082+1073.59+122.89C1069.89+125.698+1064.37+127.102+1057.02+127.102C1049.68+127.102+1044.16+125.698+1040.46+122.89C1036.76+120.082+1034.91+115.87+1034.91+110.254L1034.91+84.0097L1049.57+84.0097Z" opacity="1" fill="#ffcf2d"/>
<path d="M1116.64+94.7017C1113.94+93.2977+1111.29+92.5957+1108.7+92.5957C1107.35+92.5957+1106.26+92.8657+1105.42+93.4057C1104.58+93.9457+1104.17+94.6747+1104.17+95.5927C1104.17+96.0787+1104.23+96.4702+1104.37+96.7672C1104.5+97.0642+1104.8+97.3477+1105.26+97.6177C1105.72+97.8877+1106.39+98.1307+1107.28+98.3467C1108.18+98.5627+1109.35+98.8327+1110.81+99.1567C1114.86+99.9667+1117.88+101.411+1119.88+103.49C1121.88+105.569+1122.88+108.229+1122.88+111.469C1122.88+113.899+1122.39+116.086+1121.42+118.03C1120.45+119.974+1119.1+121.607+1117.37+122.93C1115.64+124.253+1113.56+125.279+1111.13+126.008C1108.7+126.737+1106.03+127.102+1103.11+127.102C1097.5+127.102+1091.96+125.509+1086.51+122.323L1091.85+111.955C1095.96+114.763+1099.85+116.167+1103.52+116.167C1104.87+116.167+1105.98+115.87+1106.84+115.276C1107.7+114.682+1108.14+113.926+1108.14+113.008C1108.14+112.468+1108.07+112.022+1107.93+111.671C1107.8+111.32+1107.51+110.996+1107.08+110.699C1106.65+110.402+1106.02+110.132+1105.18+109.889C1104.34+109.646+1103.25+109.39+1101.9+109.12C1097.36+108.202+1094.19+106.838+1092.38+105.029C1090.57+103.22+1089.67+100.723+1089.67+97.5367C1089.67+95.2147+1090.1+93.1222+1090.96+91.2592C1091.83+89.3962+1093.07+87.8167+1094.69+86.5207C1096.31+85.2247+1098.27+84.2257+1100.56+83.5237C1102.86+82.8217+1105.41+82.4707+1108.22+82.4707C1112.81+82.4707+1117.26+83.3617+1121.58+85.1437L1116.64+94.7017Z" opacity="1" fill="#ffcf2d"/>
</g>
</g>
</svg>
