<?xml version="1.0" encoding="UTF-8" standalone="no"?> <!-- Created with Vectornator Pro for iOS (http://vectornator.io/) --><!DOCTYPE svg PUBLIC "-//W3C//DTD SVG 1.1//EN" "http://www.w3.org/Graphics/SVG/1.1/DTD/svg11.dtd">
<svg style="fill-rule:evenodd;clip-rule:evenodd;stroke-linecap:round;stroke-linejoin:round;" xmlns:vectornator="http://vectornator.io" xmlns:xlink="http://www.w3.org/1999/xlink" xmlns="http://www.w3.org/2000/svg" xml:space="preserve" version="1.1" viewBox="0 0 2048 2048">
<metadata>
<vectornator:setting key="RulersVisible" value="1"/>
<vectornator:setting key="GridSpacing" value="36"/>
<vectornator:setting key="Units" value="Pixels"/>
<vectornator:setting key="DynamicGuides" value="0"/>
<vectornator:setting key="SnapToPoints" value="0"/>
<vectornator:setting key="SnapToGrid" value="0"/>
<vectornator:setting key="ShowGrid" value="0"/>
<vectornator:setting key="SnapToEdges" value="0"/>
</metadata>
<defs/>
<g id="Ebene 2" vectornator:layerName="Ebene 2">
<path d="M-94.3993-105.176L2266.48-105.176L2266.48+2379.15L-94.3993+2379.15L-94.3993-105.176Z" fill-opacity="0.949881" fill="#ffffff" opacity="1"/>
</g>
<g id="Ebene 3" vectornator:layerName="Ebene 3">
<path d="M264.914+1131.89C264.914+650.775+655.163+260.75+1136.56+260.75C1617.96+260.75+2008.21+650.775+2008.21+1131.89C2008.21+1613.01+1617.96+2003.04+1136.56+2003.04C655.163+2003.04+264.914+1613.01+264.914+1131.89Z" fill-opacity="0.949881" fill="#e42124" opacity="1"/>
<path vectornator:shadowColor="#ea450e" vectornator:shadowOpacity="0.322196" vectornator:shadowRadius="0" d="M152.491+1050.33C152.491+569.213+542.74+179.188+1024.14+179.188C1505.53+179.188+1895.78+569.213+1895.78+1050.33C1895.78+1531.45+1505.53+1921.48+1024.14+1921.48C542.74+1921.48+152.491+1531.45+152.491+1050.33Z" vectornator:shadowOffset="0" fill="#e45b21" opacity="1" fill-opacity="0.949881" vectornator:shadowAngle="-0.189844"/>
<path vectornator:shadowColor="#ea450e" vectornator:shadowOpacity="0.322196" vectornator:shadowRadius="0" d="M41.0894+994.427C41.0894+513.308+431.339+123.283+912.736+123.283C1394.13+123.283+1784.38+513.308+1784.38+994.427C1784.38+1475.55+1394.13+1865.57+912.736+1865.57C431.339+1865.57+41.0894+1475.55+41.0894+994.427Z" vectornator:shadowOffset="0" fill="#e4ab21" opacity="1" fill-opacity="0.949881" vectornator:shadowAngle="-0.189844"/>
</g>
<g id="Ebene 1" vectornator:layerName="Ebene 1">
<g opacity="1">
<path d="M64.7362+73.8975C64.7362+75.0775+64.8562+75.7775+65.0962+75.9975C65.2762+76.1775+65.5112+76.2875+65.8012+76.3275C66.0912+76.3675+66.7462+76.3875+67.7662+76.3875L70.4062+76.3875C71.7862+76.3875+72.7062+76.2025+73.1662+75.8325C73.6262+75.4625+73.8562+74.7175+73.8562+73.5975C73.8562+73.2975+73.8462+72.9475+73.8262+72.5475C73.7862+71.7675+73.7662+71.2975+73.7662+71.1375C73.7662+70.2575+74.1162+69.8175+74.8162+69.8175C75.6562+69.8175+76.0762+70.2175+76.0762+71.0175C76.0762+71.2575+76.0662+71.4475+76.0462+71.5875L75.8362+73.1175C75.7762+73.5575+75.7462+74.0175+75.7462+74.4975C75.7462+74.7775+75.7712+75.1925+75.8212+75.7425C75.8712+76.2925+75.8962+76.7075+75.8962+76.9875C75.8962+77.8875+75.3862+78.3375+74.3662+78.3375C74.1662+78.3375+73.7062+78.3175+72.9862+78.2775C72.5062+78.2575+71.7662+78.2375+70.7662+78.2175L68.5162+78.1875L63.7162+78.1875C63.2362+78.1875+62.4362+78.2075+61.3162+78.2475C61.1562+78.2475+60.8812+78.2675+60.4912+78.3075C60.1012+78.3475+59.7962+78.3675+59.5762+78.3675C58.7362+78.3675+58.3162+78.0075+58.3162+77.2875C58.3162+76.6475+58.6262+76.3275+59.2462+76.3275C59.4062+76.3275+59.6462+76.3525+59.9662+76.4025C60.2862+76.4525+60.5262+76.4775+60.6862+76.4775C61.7062+76.4775+62.2162+75.7275+62.2162+74.2275L62.2162+62.1975C62.2162+60.7175+61.7062+59.9775+60.6862+59.9775C60.4062+59.9775+60.1962+59.9975+60.0562+60.0375C59.7362+60.0975+59.4662+60.1275+59.2462+60.1275C58.9862+60.1275+58.7662+60.0325+58.5862+59.8425C58.4062+59.6525+58.3162+59.4175+58.3162+59.1375C58.3162+58.4375+58.7462+58.0875+59.6062+58.0875C59.7262+58.0875+59.8762+58.0975+60.0562+58.1175L61.6462+58.2975C62.5262+58.3975+63.1762+58.4475+63.5962+58.4475C64.1162+58.4475+64.7562+58.3975+65.5162+58.2975L66.8962+58.1175C67.0562+58.0975+67.1862+58.0875+67.2862+58.0875C68.1862+58.0875+68.6362+58.4375+68.6362+59.1375C68.6362+59.4175+68.5462+59.6525+68.3662+59.8425C68.1862+60.0325+67.9662+60.1275+67.7062+60.1275C67.5062+60.1275+67.2362+60.0975+66.8962+60.0375C66.7562+59.9975+66.5462+59.9775+66.2662+59.9775C65.2462+59.9775+64.7362+60.7175+64.7362+62.1975L64.7362+73.8975Z" fill-opacity="0.949881" fill="#000000" opacity="1"/>
<path d="M82.8862+69.5175L82.8862+73.4175C82.8862+74.4175+82.8962+75.0075+82.9162+75.1875C83.0162+76.0875+83.2862+76.5375+83.7262+76.5375C83.8262+76.5375+84.0762+76.4875+84.4762+76.3875C84.5762+76.3475+84.7262+76.3275+84.9262+76.3275C85.6862+76.3275+86.0662+76.6575+86.0662+77.3175C86.0662+77.5975+85.9412+77.8375+85.6912+78.0375C85.4412+78.2375+85.1262+78.3375+84.7462+78.3375C84.4262+78.3375+83.9412+78.2925+83.2912+78.2025C82.6412+78.1125+82.1562+78.0675+81.8362+78.0675C81.3162+78.0675+80.7362+78.1075+80.0962+78.1875C79.3162+78.2875+78.7962+78.3375+78.5362+78.3375C77.7362+78.3375+77.3362+77.9975+77.3362+77.3175C77.3362+76.6575+77.6762+76.3275+78.3562+76.3275C78.5162+76.3275+78.7512+76.3575+79.0612+76.4175C79.3712+76.4775+79.6062+76.5075+79.7662+76.5075C80.2462+76.5075+80.5362+75.8675+80.6362+74.5875C80.6362+74.5075+80.6362+73.6375+80.6362+71.9775L80.6362+69.5175C80.6362+67.8575+80.6362+66.9875+80.6362+66.9075C80.5362+65.6475+80.2362+65.0175+79.7362+65.0175C79.5762+65.0175+79.3512+65.0525+79.0612+65.1225C78.7712+65.1925+78.5562+65.2275+78.4162+65.2275C77.6962+65.2275+77.3362+64.9075+77.3362+64.2675C77.3362+63.5875+77.7762+63.2475+78.6562+63.2475C79.0362+63.2475+79.3062+63.2575+79.4662+63.2775C80.1062+63.3575+80.5162+63.3975+80.6962+63.3975C80.8562+63.3975+81.1012+63.3725+81.4312+63.3225C81.7612+63.2725+82.0062+63.2475+82.1662+63.2475C82.7462+63.2475+83.0362+63.6375+83.0362+64.4175C83.0362+64.4975+83.0262+64.6175+83.0062+64.7775C82.9862+64.9375+82.9762+65.0575+82.9762+65.1375C82.9562+65.2975+82.9362+65.9175+82.9162+66.9975C82.8962+67.8175+82.8862+68.6575+82.8862+69.5175ZM81.3262+61.6575C80.8662+61.6575+80.4712+61.4925+80.1412+61.1625C79.8112+60.8325+79.6462+60.4375+79.6462+59.9775C79.6462+59.5175+79.8112+59.1275+80.1412+58.8075C80.4712+58.4875+80.8662+58.3275+81.3262+58.3275C81.7862+58.3275+82.1812+58.4875+82.5112+58.8075C82.8412+59.1275+83.0062+59.5175+83.0062+59.9775C83.0062+60.4375+82.8412+60.8325+82.5112+61.1625C82.1812+61.4925+81.7862+61.6575+81.3262+61.6575Z" fill-opacity="0.949881" fill="#000000" opacity="1"/>
<path d="M91.7962+66.7875L95.3062+76.1475L98.6962+66.7875C98.8962+66.2275+98.9962+65.8675+98.9962+65.7075C98.9962+65.2675+98.7862+65.0475+98.3662+65.0475C98.2062+65.0475+97.9712+65.0825+97.6612+65.1525C97.3512+65.2225+97.1162+65.2575+96.9562+65.2575C96.2962+65.2575+95.9662+64.9275+95.9662+64.2675C95.9662+63.5675+96.4462+63.2175+97.4062+63.2175C97.4462+63.2175+97.5262+63.2175+97.6462+63.2175C97.7462+63.2375+97.8262+63.2475+97.8862+63.2475L99.1462+63.4275C99.4262+63.4675+99.7162+63.4875+100.016+63.4875C100.416+63.4875+101.076+63.4375+101.996+63.3375C102.556+63.2775+102.956+63.2475+103.196+63.2475C104.056+63.2475+104.486+63.5775+104.486+64.2375C104.486+64.8975+104.136+65.2275+103.436+65.2275C103.216+65.2275+103.056+65.2075+102.956+65.1675C102.656+65.1075+102.446+65.0775+102.326+65.0775C101.966+65.0775+101.596+65.5575+101.216+66.5175L96.9862+77.3175C96.6262+78.2375+96.0162+78.6975+95.1562+78.6975C94.3362+78.6975+93.7462+78.2375+93.3862+77.3175L89.0662+66.2175C88.7862+65.4775+88.4562+65.1075+88.0762+65.1075C87.9362+65.1075+87.7262+65.1375+87.4462+65.1975C87.1662+65.2575+86.9562+65.2875+86.8162+65.2875C86.1562+65.2875+85.8262+64.9775+85.8262+64.3575C85.8262+63.6375+86.2862+63.2775+87.2062+63.2775C87.3662+63.2775+87.4862+63.2875+87.5662+63.3075L88.8262+63.4275C89.2462+63.4675+89.6662+63.4875+90.0862+63.4875C90.4262+63.4875+90.9262+63.4575+91.5862+63.3975L92.5762+63.3075C92.6762+63.2875+92.8162+63.2775+92.9962+63.2775C93.8762+63.2775+94.3162+63.6175+94.3162+64.2975C94.3162+64.9375+93.9362+65.2575+93.1762+65.2575C92.9362+65.2575+92.7662+65.2475+92.6662+65.2275C92.2862+65.1475+92.0462+65.1075+91.9462+65.1075C91.6262+65.1075+91.4662+65.2475+91.4662+65.5275C91.4662+65.6675+91.5062+65.8675+91.5862+66.1275L91.7962+66.7875Z" fill-opacity="0.949881" fill="#000000" opacity="1"/>
<path d="M118.556+69.3975C118.556+70.1575+118.506+70.6225+118.406+70.7925C118.306+70.9625+118.016+71.0475+117.536+71.0475L107.996+71.0475C107.736+71.0475+107.566+71.0825+107.486+71.1525C107.406+71.2225+107.366+71.3375+107.366+71.4975C107.366+72.9975+107.816+74.2475+108.716+75.2475C109.616+76.2475+110.736+76.7475+112.076+76.7475C112.956+76.7475+113.761+76.5075+114.491+76.0275C115.221+75.5475+115.696+74.9375+115.916+74.1975L116.186+73.3275C116.326+72.8475+116.656+72.6075+117.176+72.6075C117.916+72.6075+118.286+72.9875+118.286+73.7475C118.286+75.0475+117.626+76.2025+116.306+77.2125C114.986+78.2225+113.486+78.7275+111.806+78.7275C109.706+78.7275+108.036+78.0225+106.796+76.6125C105.556+75.2025+104.936+73.3075+104.936+70.9275C104.936+68.4875+105.596+66.5075+106.916+64.9875C108.236+63.4675+109.956+62.7075+112.076+62.7075C113.956+62.7075+115.506+63.3375+116.726+64.5975C117.946+65.8575+118.556+67.4575+118.556+69.3975ZM107.666+68.6175C107.666+68.8975+107.886+69.0375+108.326+69.0375L115.496+69.0375C115.916+69.0375+116.126+68.8975+116.126+68.6175C116.126+67.5575+115.726+66.6375+114.926+65.8575C114.126+65.0775+113.186+64.6875+112.106+64.6875C110.986+64.6875+109.966+65.0925+109.046+65.9025C108.126+66.7125+107.666+67.6175+107.666+68.6175Z" fill-opacity="0.949881" fill="#000000" opacity="1"/>
<path d="M137.156+60.4875C137.156+60.2075+137.256+59.9575+137.456+59.7375C137.116+59.4175+136.616+59.2575+135.956+59.2575C135.096+59.2575+134.421+59.5325+133.931+60.0825C133.441+60.6325+133.196+61.3975+133.196+62.3775L133.196+62.9175C133.196+63.1775+133.326+63.3075+133.586+63.3075L135.926+63.3075C136.586+63.3075+136.916+63.6675+136.916+64.3875C136.916+65.1075+136.586+65.4675+135.926+65.4675L133.706+65.4675C133.366+65.4675+133.196+65.6475+133.196+66.0075L133.196+74.4075C133.196+75.1475+133.206+75.5775+133.226+75.6975C133.326+76.2375+133.576+76.5075+133.976+76.5075C134.076+76.5075+134.326+76.4575+134.726+76.3575C135.006+76.3175+135.206+76.2975+135.326+76.2975C136.006+76.2975+136.346+76.6275+136.346+77.2875C136.346+77.9875+135.936+78.3375+135.116+78.3375C134.776+78.3375+134.261+78.2975+133.571+78.2175C132.881+78.1375+132.366+78.0975+132.026+78.0975C131.426+78.0975+130.886+78.1275+130.406+78.1875C129.626+78.2875+129.126+78.3375+128.906+78.3375C128.046+78.3375+127.616+77.9875+127.616+77.2875C127.616+77.0275+127.721+76.7975+127.931+76.5975C128.141+76.3975+128.386+76.2975+128.666+76.2975C128.866+76.2975+129.091+76.3325+129.341+76.4025C129.591+76.4725+129.816+76.5075+130.016+76.5075C130.396+76.5075+130.636+76.2675+130.736+75.7875C130.836+75.3075+130.896+74.1475+130.916+72.3075L130.946+66.0075C130.946+65.6475+130.766+65.4675+130.406+65.4675L128.906+65.4675C128.206+65.4675+127.856+65.0975+127.856+64.3575C127.856+63.6575+128.216+63.3075+128.936+63.3075L130.646+63.3075C130.906+63.3075+131.036+63.1775+131.036+62.9175L131.036+62.3775C131.036+60.7975+131.456+59.5875+132.296+58.7475C133.136+57.9075+134.326+57.4875+135.866+57.4875C137.126+57.4875+138.136+57.7425+138.896+58.2525C139.656+58.7625+140.036+59.4475+140.036+60.3075C140.036+60.7475+139.896+61.1025+139.616+61.3725C139.336+61.6425+138.986+61.7775+138.566+61.7775C138.166+61.7775+137.831+61.6525+137.561+61.4025C137.291+61.1525+137.156+60.8475+137.156+60.4875Z" fill-opacity="0.949881" fill="#000000" opacity="1"/>
<path d="M143.186+64.0875L143.186+64.8975C144.226+63.4375+145.616+62.7075+147.356+62.7075C148.756+62.7075+149.891+63.1025+150.761+63.8925C151.631+64.6825+152.066+65.6975+152.066+66.9375C152.066+67.8175+151.846+68.5325+151.406+69.0825C150.966+69.6325+150.386+69.9075+149.666+69.9075C149.206+69.9075+148.816+69.7675+148.496+69.4875C148.176+69.2075+148.016+68.8675+148.016+68.4675C148.016+68.1475+148.136+67.8625+148.376+67.6125C148.616+67.3625+148.896+67.2375+149.216+67.2375C149.276+67.2375+149.406+67.2675+149.606+67.3275C149.726+67.0875+149.786+66.8675+149.786+66.6675C149.786+66.0875+149.531+65.5975+149.021+65.1975C148.511+64.7975+147.876+64.5975+147.116+64.5975C145.556+64.5975+144.516+65.2975+143.996+66.6975C143.676+67.5575+143.516+68.8575+143.516+70.5975L143.516+72.5775C143.516+73.9175+143.526+74.6675+143.546+74.8275C143.646+75.9675+143.956+76.5375+144.476+76.5375C144.736+76.5375+145.006+76.4975+145.286+76.4175C145.506+76.3575+145.696+76.3275+145.856+76.3275C146.496+76.3275+146.816+76.6475+146.816+77.2875C146.816+77.9875+146.406+78.3375+145.586+78.3375L145.466+78.3375C145.166+78.3375+144.711+78.3025+144.101+78.2325C143.491+78.1625+143.036+78.1275+142.736+78.1275C141.936+78.1275+141.306+78.1475+140.846+78.1875L139.166+78.3375C138.346+78.3375+137.936+77.9875+137.936+77.2875C137.936+76.6675+138.316+76.3575+139.076+76.3575C139.276+76.3575+139.426+76.3675+139.526+76.3875L139.976+76.4775C140.176+76.5175+140.316+76.5375+140.396+76.5375C140.896+76.5375+141.166+76.0775+141.206+75.1575L141.266+73.6275L141.176+66.8175C141.116+65.6375+140.816+65.0475+140.276+65.0475C140.116+65.0475+139.896+65.0775+139.616+65.1375C139.336+65.1975+139.116+65.2275+138.956+65.2275C138.296+65.2275+137.966+64.9075+137.966+64.2675C137.966+63.5675+138.396+63.2175+139.256+63.2175C139.456+63.2175+139.756+63.2425+140.156+63.2925C140.556+63.3425+140.856+63.3675+141.056+63.3675C141.216+63.3675+141.476+63.3475+141.836+63.3075C141.996+63.2675+142.186+63.2475+142.406+63.2475C142.926+63.2475+143.186+63.5275+143.186+64.0875Z" fill-opacity="0.949881" fill="#000000" opacity="1"/>
<path d="M160.286+78.7275C158.186+78.7275+156.506+78.0025+155.246+76.5525C153.986+75.1025+153.356+73.1575+153.356+70.7175C153.356+68.2775+153.991+66.3325+155.261+64.8825C156.531+63.4325+158.236+62.7075+160.376+62.7075C162.556+62.7075+164.276+63.4175+165.536+64.8375C166.796+66.2575+167.426+68.1875+167.426+70.6275C167.426+73.0675+166.776+75.0275+165.476+76.5075C164.176+77.9875+162.446+78.7275+160.286+78.7275ZM160.436+64.6875C159.036+64.6875+157.936+65.1775+157.136+66.1575C156.336+67.1375+155.896+68.5275+155.816+70.3275C155.816+70.3275+155.816+70.4575+155.816+70.7175C155.816+72.5975+156.211+74.0725+157.001+75.1425C157.791+76.2125+158.896+76.7475+160.316+76.7475C161.776+76.7475+162.921+76.2125+163.751+75.1425C164.581+74.0725+164.996+72.5875+164.996+70.6875C164.996+66.6875+163.476+64.6875+160.436+64.6875Z" fill-opacity="0.949881" fill="#000000" opacity="1"/>
<path d="M174.266+64.1175L174.266+64.9875C174.986+64.1275+175.666+63.5325+176.306+63.2025C176.946+62.8725+177.746+62.7075+178.706+62.7075C180.666+62.7075+182.106+63.4675+183.026+64.9875C183.706+64.1475+184.396+63.5575+185.096+63.2175C185.796+62.8775+186.696+62.7075+187.796+62.7075C188.936+62.7075+189.956+62.9475+190.856+63.4275C191.856+63.9675+192.546+64.7275+192.926+65.7075C193.186+66.3675+193.316+67.4075+193.316+68.8275L193.316+71.7375L193.286+73.9875C193.286+74.8075+193.296+75.3075+193.316+75.4875C193.416+76.2075+193.676+76.5675+194.096+76.5675C194.236+76.5675+194.446+76.5375+194.726+76.4775C195.006+76.4175+195.216+76.3875+195.356+76.3875C196.056+76.3875+196.406+76.6875+196.406+77.2875C196.406+77.9875+196.006+78.3375+195.206+78.3375C194.906+78.3375+194.451+78.3025+193.841+78.2325C193.231+78.1625+192.766+78.1275+192.446+78.1275C192.106+78.1275+191.611+78.1625+190.961+78.2325C190.311+78.3025+189.816+78.3375+189.476+78.3375C188.636+78.3375+188.216+77.9875+188.216+77.2875C188.216+76.6875+188.536+76.3875+189.176+76.3875C189.256+76.3875+189.456+76.4075+189.776+76.4475C189.896+76.4875+190.056+76.5075+190.256+76.5075C190.596+76.5075+190.811+76.3375+190.901+75.9975C190.991+75.6575+191.046+74.8075+191.066+73.4475L191.096+71.6175L191.096+69.6375C191.096+68.2575+190.991+67.2525+190.781+66.6225C190.571+65.9925+190.176+65.4975+189.596+65.1375C189.016+64.7775+188.356+64.5975+187.616+64.5975C186.196+64.5975+185.206+65.0875+184.646+66.0675C184.206+66.8475+183.986+68.2075+183.986+70.1475L183.986+72.2775C183.986+74.1575+184.031+75.3325+184.121+75.8025C184.211+76.2725+184.446+76.5075+184.826+76.5075C184.946+76.5075+185.121+76.4825+185.351+76.4325C185.581+76.3825+185.756+76.3575+185.876+76.3575C186.156+76.3575+186.391+76.4525+186.581+76.6425C186.771+76.8325+186.866+77.0675+186.866+77.3475C186.866+78.0075+186.396+78.3375+185.456+78.3375C185.156+78.3375+184.711+78.2975+184.121+78.2175C183.531+78.1375+183.086+78.0975+182.786+78.0975C182.366+78.0975+181.906+78.1375+181.406+78.2175C180.906+78.2975+180.466+78.3375+180.086+78.3375C179.266+78.3375+178.856+77.9975+178.856+77.3175C178.856+76.6975+179.156+76.3875+179.756+76.3875C179.976+76.3875+180.146+76.4075+180.266+76.4475C180.546+76.5075+180.756+76.5375+180.896+76.5375C181.376+76.5375+181.626+76.0275+181.646+75.0075L181.676+73.5975C181.696+73.1575+181.706+72.7275+181.706+72.3075C181.726+71.9475+181.736+71.7575+181.736+71.7375L181.736+69.2475C181.736+67.5075+181.501+66.2975+181.031+65.6175C180.561+64.9375+179.726+64.5975+178.526+64.5975C177.206+64.5975+176.196+65.0775+175.496+66.0375C174.916+66.8175+174.626+68.1775+174.626+70.1175L174.626+74.1075C174.626+74.9075+174.636+75.3775+174.656+75.5175C174.736+76.1975+174.956+76.5375+175.316+76.5375C175.416+76.5375+175.626+76.4975+175.946+76.4175C175.986+76.4175+176.046+76.4075+176.126+76.3875C176.206+76.3875+176.276+76.3875+176.336+76.3875C177.116+76.3875+177.506+76.7175+177.506+77.3775C177.506+78.0175+177.056+78.3375+176.156+78.3375C175.816+78.3375+175.396+78.3075+174.896+78.2475C174.216+78.1675+173.636+78.1275+173.156+78.1275C172.916+78.1275+172.476+78.1575+171.836+78.2175C170.976+78.2975+170.456+78.3375+170.276+78.3375C169.476+78.3375+169.076+77.9975+169.076+77.3175C169.076+76.6975+169.456+76.3875+170.216+76.3875C170.256+76.3875+170.316+76.3875+170.396+76.3875C170.476+76.4075+170.536+76.4175+170.576+76.4175L171.326+76.5675C171.346+76.5875+171.386+76.5975+171.446+76.5975C171.986+76.5975+172.276+76.1075+172.316+75.1275L172.376+73.4175L172.376+68.8275C172.376+67.1275+172.331+66.0675+172.241+65.6475C172.151+65.2275+171.906+65.0175+171.506+65.0175C171.426+65.0175+171.146+65.0675+170.666+65.1675C170.466+65.2075+170.306+65.2275+170.186+65.2275C169.446+65.2275+169.076+64.9075+169.076+64.2675C169.076+63.5875+169.486+63.2475+170.306+63.2475C170.526+63.2475+170.826+63.2675+171.206+63.3075C171.586+63.3475+171.916+63.3675+172.196+63.3675C172.296+63.3675+172.406+63.3575+172.526+63.3375C172.646+63.3375+172.716+63.3375+172.736+63.3375L173.456+63.2475L173.546+63.2475C174.026+63.2475+174.266+63.5375+174.266+64.1175Z" fill-opacity="0.949881" fill="#000000" opacity="1"/>
<path d="M222.146+62.9175C222.146+64.9575+220.986+66.3975+218.666+67.2375C219.506+67.4975+220.196+67.7875+220.736+68.1075C222.356+69.0475+223.166+70.4575+223.166+72.3375C223.166+74.1775+222.456+75.6425+221.036+76.7325C219.616+77.8225+217.716+78.3675+215.336+78.3675C214.476+78.3675+213.386+78.3175+212.066+78.2175C210.746+78.1175+209.776+78.0675+209.156+78.0675C208.616+78.0675+208.106+78.0975+207.626+78.1575L206.216+78.3375C206.176+78.3375+206.106+78.3475+206.006+78.3675C205.906+78.3675+205.836+78.3675+205.796+78.3675C204.936+78.3475+204.506+77.9875+204.506+77.2875C204.506+76.6475+204.816+76.3275+205.436+76.3275C205.596+76.3275+205.866+76.3575+206.246+76.4175C206.506+76.4575+206.716+76.4775+206.876+76.4775C207.896+76.4775+208.406+75.7375+208.406+74.2575L208.406+62.1975C208.406+60.6975+207.896+59.9475+206.876+59.9475C206.696+59.9475+206.486+59.9675+206.246+60.0075C205.886+60.0675+205.616+60.0975+205.436+60.0975C204.816+60.0975+204.506+59.7775+204.506+59.1375C204.506+58.4375+204.966+58.0875+205.886+58.0875L206.276+58.0875L207.746+58.2975C208.166+58.3575+208.736+58.3875+209.456+58.3875C210.216+58.3875+211.296+58.3275+212.696+58.2075C213.636+58.1275+214.646+58.0875+215.726+58.0875C217.746+58.0875+219.321+58.5125+220.451+59.3625C221.581+60.2125+222.146+61.3975+222.146+62.9175ZM210.656+64.2075C210.656+65.2675+210.751+65.9225+210.941+66.1725C211.131+66.4225+211.656+66.5475+212.516+66.5475L214.196+66.5475C217.736+66.5475+219.506+65.3975+219.506+63.0975C219.506+60.9975+218.046+59.9475+215.126+59.9475C213.086+59.9475+211.831+60.0775+211.361+60.3375C210.891+60.5975+210.656+61.2675+210.656+62.3475L210.656+64.2075ZM210.656+70.2975L210.656+73.6275C210.656+74.9275+210.876+75.7275+211.316+76.0275C211.756+76.3275+212.956+76.4775+214.916+76.4775C218.656+76.4775+220.526+75.0775+220.526+72.2775C220.526+69.6975+218.726+68.4075+215.126+68.4075L212.636+68.4075C211.556+68.4075+210.936+68.6475+210.776+69.1275C210.696+69.3675+210.656+69.7575+210.656+70.2975Z" fill-opacity="0.949881" fill="#000000" opacity="1"/>
<path d="M230.396+64.0875L230.396+64.8975C231.436+63.4375+232.826+62.7075+234.566+62.7075C235.966+62.7075+237.101+63.1025+237.971+63.8925C238.841+64.6825+239.276+65.6975+239.276+66.9375C239.276+67.8175+239.056+68.5325+238.616+69.0825C238.176+69.6325+237.596+69.9075+236.876+69.9075C236.416+69.9075+236.026+69.7675+235.706+69.4875C235.386+69.2075+235.226+68.8675+235.226+68.4675C235.226+68.1475+235.346+67.8625+235.586+67.6125C235.826+67.3625+236.106+67.2375+236.426+67.2375C236.486+67.2375+236.616+67.2675+236.816+67.3275C236.936+67.0875+236.996+66.8675+236.996+66.6675C236.996+66.0875+236.741+65.5975+236.231+65.1975C235.721+64.7975+235.086+64.5975+234.326+64.5975C232.766+64.5975+231.726+65.2975+231.206+66.6975C230.886+67.5575+230.726+68.8575+230.726+70.5975L230.726+72.5775C230.726+73.9175+230.736+74.6675+230.756+74.8275C230.856+75.9675+231.166+76.5375+231.686+76.5375C231.946+76.5375+232.216+76.4975+232.496+76.4175C232.716+76.3575+232.906+76.3275+233.066+76.3275C233.706+76.3275+234.026+76.6475+234.026+77.2875C234.026+77.9875+233.616+78.3375+232.796+78.3375L232.676+78.3375C232.376+78.3375+231.921+78.3025+231.311+78.2325C230.701+78.1625+230.246+78.1275+229.946+78.1275C229.146+78.1275+228.516+78.1475+228.056+78.1875L226.376+78.3375C225.556+78.3375+225.146+77.9875+225.146+77.2875C225.146+76.6675+225.526+76.3575+226.286+76.3575C226.486+76.3575+226.636+76.3675+226.736+76.3875L227.186+76.4775C227.386+76.5175+227.526+76.5375+227.606+76.5375C228.106+76.5375+228.376+76.0775+228.416+75.1575L228.476+73.6275L228.386+66.8175C228.326+65.6375+228.026+65.0475+227.486+65.0475C227.326+65.0475+227.106+65.0775+226.826+65.1375C226.546+65.1975+226.326+65.2275+226.166+65.2275C225.506+65.2275+225.176+64.9075+225.176+64.2675C225.176+63.5675+225.606+63.2175+226.466+63.2175C226.666+63.2175+226.966+63.2425+227.366+63.2925C227.766+63.3425+228.066+63.3675+228.266+63.3675C228.426+63.3675+228.686+63.3475+229.046+63.3075C229.206+63.2675+229.396+63.2475+229.616+63.2475C230.136+63.2475+230.396+63.5275+230.396+64.0875Z" fill-opacity="0.949881" fill="#000000" opacity="1"/>
<path d="M253.466+77.4675L253.466+76.5375C252.406+77.9975+250.836+78.7275+248.756+78.7275C246.396+78.7275+244.756+77.9975+243.836+76.5375C243.436+75.8975+243.216+75.1475+243.176+74.2875C243.156+73.8675+243.146+72.9875+243.146+71.6475L243.146+69.1575C243.146+66.4175+242.856+65.0475+242.276+65.0475C242.156+65.0475+241.966+65.0725+241.706+65.1225C241.446+65.1725+241.246+65.1975+241.106+65.1975C240.406+65.1975+240.056+64.8675+240.056+64.2075C240.056+63.5675+240.486+63.2475+241.346+63.2475C241.546+63.2475+241.841+63.2675+242.231+63.3075C242.621+63.3475+242.916+63.3675+243.116+63.3675C243.296+63.3675+243.606+63.3375+244.046+63.2775C244.346+63.2375+244.516+63.2175+244.556+63.2175C245.176+63.2175+245.486+63.5975+245.486+64.3575L245.486+64.9875L245.456+66.9375L245.366+69.1575L245.366+71.1075C245.366+72.8475+245.506+74.0975+245.786+74.8575C246.246+76.1175+247.346+76.7475+249.086+76.7475C249.946+76.7475+250.706+76.5525+251.366+76.1625C252.026+75.7725+252.486+75.2575+252.746+74.6175C253.066+73.8375+253.226+72.3575+253.226+70.1775L253.226+68.5275C253.226+67.3275+253.226+66.6775+253.226+66.5775C253.126+65.6175+252.866+65.1375+252.446+65.1375C252.226+65.1375+252.046+65.1575+251.906+65.1975L251.546+65.1975C250.846+65.1975+250.496+64.8875+250.496+64.2675C250.496+63.5675+250.886+63.2175+251.666+63.2175C251.846+63.2175+252.121+63.2375+252.491+63.2775C252.861+63.3175+253.136+63.3375+253.316+63.3375C253.476+63.3375+253.716+63.3225+254.036+63.2925C254.356+63.2625+254.596+63.2475+254.756+63.2475C255.356+63.2475+255.656+63.5675+255.656+64.2075C255.656+64.4875+255.636+64.7075+255.596+64.8675C255.496+65.6275+255.446+66.7475+255.446+68.2275L255.446+72.8475C255.446+74.0675+255.456+74.7475+255.476+74.8875C255.576+75.9475+255.856+76.4775+256.316+76.4775C256.456+76.4775+256.656+76.4525+256.916+76.4025C257.176+76.3525+257.376+76.3275+257.516+76.3275C258.196+76.3275+258.536+76.6575+258.536+77.3175C258.536+77.9975+258.116+78.3375+257.276+78.3375C257.096+78.3375+256.836+78.3175+256.496+78.2775C255.996+78.2175+255.686+78.1875+255.566+78.1875C255.506+78.1875+255.296+78.2075+254.936+78.2475C254.696+78.3075+254.486+78.3375+254.306+78.3375C253.746+78.3375+253.466+78.0475+253.466+77.4675Z" fill-opacity="0.949881" fill="#000000" opacity="1"/>
<path d="M266.126+62.7075C267.466+62.7075+268.586+63.0575+269.486+63.7575L269.486+63.6375C269.486+62.8975+269.806+62.5275+270.446+62.5275C271.106+62.5275+271.436+62.8475+271.436+63.4875C271.436+63.6075+271.416+63.9075+271.376+64.3875C271.296+64.7875+271.256+65.1875+271.256+65.5875C271.256+65.8275+271.291+66.1775+271.361+66.6375C271.431+67.0975+271.466+67.4475+271.466+67.6875C271.466+68.4475+271.136+68.8275+270.476+68.8275C269.836+68.8275+269.506+68.5075+269.486+67.8675L269.456+66.8775C269.436+66.2775+269.091+65.7625+268.421+65.3325C267.751+64.9025+266.966+64.6875+266.066+64.6875C265.146+64.6875+264.376+64.9225+263.756+65.3925C263.136+65.8625+262.826+66.4475+262.826+67.1475C262.826+68.4275+263.706+69.1875+265.466+69.4275L267.206+69.6675C270.606+70.1275+272.306+71.5375+272.306+73.8975C272.306+75.3375+271.756+76.5025+270.656+77.3925C269.556+78.2825+268.116+78.7275+266.336+78.7275C264.676+78.7275+263.236+78.2575+262.016+77.3175C262.036+77.5175+262.046+77.7075+262.046+77.8875C262.046+78.6075+261.706+78.9675+261.026+78.9675C260.286+78.9675+259.916+78.5575+259.916+77.7375C259.916+77.8775+259.976+77.3575+260.096+76.1775C260.136+75.8975+260.156+75.6175+260.156+75.3375C260.156+74.8575+260.116+74.4075+260.036+73.9875C259.956+73.5675+259.916+73.2375+259.916+72.9975C259.916+72.2975+260.236+71.9475+260.876+71.9475C261.296+71.9475+261.561+72.0475+261.671+72.2475C261.781+72.4475+261.846+72.9775+261.866+73.8375C261.886+74.6975+262.336+75.3975+263.216+75.9375C264.096+76.4775+265.216+76.7475+266.576+76.7475C267.556+76.7475+268.366+76.4975+269.006+75.9975C269.646+75.4975+269.966+74.8675+269.966+74.1075C269.966+72.7475+268.886+71.9575+266.726+71.7375C264.666+71.5175+263.096+71.1125+262.016+70.5225C260.936+69.9325+260.396+68.8975+260.396+67.4175C260.396+66.0175+260.926+64.8825+261.986+64.0125C263.046+63.1425+264.426+62.7075+266.126+62.7075Z" fill-opacity="0.949881" fill="#000000" opacity="1"/>
<path d="M280.886+62.7075C282.226+62.7075+283.346+63.0575+284.246+63.7575L284.246+63.6375C284.246+62.8975+284.566+62.5275+285.206+62.5275C285.866+62.5275+286.196+62.8475+286.196+63.4875C286.196+63.6075+286.176+63.9075+286.136+64.3875C286.056+64.7875+286.016+65.1875+286.016+65.5875C286.016+65.8275+286.051+66.1775+286.121+66.6375C286.191+67.0975+286.226+67.4475+286.226+67.6875C286.226+68.4475+285.896+68.8275+285.236+68.8275C284.596+68.8275+284.266+68.5075+284.246+67.8675L284.216+66.8775C284.196+66.2775+283.851+65.7625+283.181+65.3325C282.511+64.9025+281.726+64.6875+280.826+64.6875C279.906+64.6875+279.136+64.9225+278.516+65.3925C277.896+65.8625+277.586+66.4475+277.586+67.1475C277.586+68.4275+278.466+69.1875+280.226+69.4275L281.966+69.6675C285.366+70.1275+287.066+71.5375+287.066+73.8975C287.066+75.3375+286.516+76.5025+285.416+77.3925C284.316+78.2825+282.876+78.7275+281.096+78.7275C279.436+78.7275+277.996+78.2575+276.776+77.3175C276.796+77.5175+276.806+77.7075+276.806+77.8875C276.806+78.6075+276.466+78.9675+275.786+78.9675C275.046+78.9675+274.676+78.5575+274.676+77.7375C274.676+77.8775+274.736+77.3575+274.856+76.1775C274.896+75.8975+274.916+75.6175+274.916+75.3375C274.916+74.8575+274.876+74.4075+274.796+73.9875C274.716+73.5675+274.676+73.2375+274.676+72.9975C274.676+72.2975+274.996+71.9475+275.636+71.9475C276.056+71.9475+276.321+72.0475+276.431+72.2475C276.541+72.4475+276.606+72.9775+276.626+73.8375C276.646+74.6975+277.096+75.3975+277.976+75.9375C278.856+76.4775+279.976+76.7475+281.336+76.7475C282.316+76.7475+283.126+76.4975+283.766+75.9975C284.406+75.4975+284.726+74.8675+284.726+74.1075C284.726+72.7475+283.646+71.9575+281.486+71.7375C279.426+71.5175+277.856+71.1125+276.776+70.5225C275.696+69.9325+275.156+68.8975+275.156+67.4175C275.156+66.0175+275.686+64.8825+276.746+64.0125C277.806+63.1425+279.186+62.7075+280.886+62.7075Z" fill-opacity="0.949881" fill="#000000" opacity="1"/>
<path d="M302.936+69.3975C302.936+70.1575+302.886+70.6225+302.786+70.7925C302.686+70.9625+302.396+71.0475+301.916+71.0475L292.376+71.0475C292.116+71.0475+291.946+71.0825+291.866+71.1525C291.786+71.2225+291.746+71.3375+291.746+71.4975C291.746+72.9975+292.196+74.2475+293.096+75.2475C293.996+76.2475+295.116+76.7475+296.456+76.7475C297.336+76.7475+298.141+76.5075+298.871+76.0275C299.601+75.5475+300.076+74.9375+300.296+74.1975L300.566+73.3275C300.706+72.8475+301.036+72.6075+301.556+72.6075C302.296+72.6075+302.666+72.9875+302.666+73.7475C302.666+75.0475+302.006+76.2025+300.686+77.2125C299.366+78.2225+297.866+78.7275+296.186+78.7275C294.086+78.7275+292.416+78.0225+291.176+76.6125C289.936+75.2025+289.316+73.3075+289.316+70.9275C289.316+68.4875+289.976+66.5075+291.296+64.9875C292.616+63.4675+294.336+62.7075+296.456+62.7075C298.336+62.7075+299.886+63.3375+301.106+64.5975C302.326+65.8575+302.936+67.4575+302.936+69.3975ZM292.046+68.6175C292.046+68.8975+292.266+69.0375+292.706+69.0375L299.876+69.0375C300.296+69.0375+300.506+68.8975+300.506+68.6175C300.506+67.5575+300.106+66.6375+299.306+65.8575C298.506+65.0775+297.566+64.6875+296.486+64.6875C295.366+64.6875+294.346+65.0925+293.426+65.9025C292.506+66.7125+292.046+67.6175+292.046+68.6175Z" fill-opacity="0.949881" fill="#000000" opacity="1"/>
<path d="M309.836+65.6775L309.866+75.0075C309.886+76.0275+310.156+76.5375+310.676+76.5375C310.796+76.5375+311.046+76.4875+311.426+76.3875C311.666+76.3475+311.826+76.3275+311.906+76.3275C312.566+76.3275+312.896+76.6675+312.896+77.3475C312.896+78.0075+312.486+78.3375+311.666+78.3375C311.346+78.3375+310.836+78.2975+310.136+78.2175C309.436+78.1375+308.896+78.0975+308.516+78.0975C308.196+78.0975+307.716+78.1375+307.076+78.2175C306.436+78.2975+305.966+78.3375+305.666+78.3375L305.516+78.3375C304.676+78.3375+304.256+77.9775+304.256+77.2575C304.256+76.6375+304.596+76.3275+305.276+76.3275C305.316+76.3275+305.386+76.3275+305.486+76.3275C305.606+76.3475+305.696+76.3575+305.756+76.3575C306.256+76.4375+306.546+76.4775+306.626+76.4775C306.986+76.4775+307.211+76.3225+307.301+76.0125C307.391+75.7025+307.446+74.8975+307.466+73.5975L307.496+71.4975L307.586+66.8475L307.556+61.5075C307.536+60.9075+307.506+60.5075+307.466+60.3075C307.326+59.8475+307.046+59.6175+306.626+59.6175C306.566+59.6175+306.306+59.6575+305.846+59.7375C305.626+59.7775+305.446+59.7975+305.306+59.7975C304.626+59.7975+304.286+59.4775+304.286+58.8375C304.286+58.1775+304.686+57.8475+305.486+57.8475C305.706+57.8475+305.896+57.8575+306.056+57.8775L306.776+57.9675C307.096+58.0075+307.366+58.0275+307.586+58.0275C307.786+58.0275+308.086+57.9925+308.486+57.9225C308.886+57.8525+309.186+57.8175+309.386+57.8175C309.846+57.8175+310.076+58.1075+310.076+58.6875C310.076+58.8875+310.066+59.0375+310.046+59.1375C309.906+60.6775+309.836+62.8575+309.836+65.6775Z" fill-opacity="0.949881" fill="#000000" opacity="1"/>
<path d="M320.756+62.7075C322.096+62.7075+323.216+63.0575+324.116+63.7575L324.116+63.6375C324.116+62.8975+324.436+62.5275+325.076+62.5275C325.736+62.5275+326.066+62.8475+326.066+63.4875C326.066+63.6075+326.046+63.9075+326.006+64.3875C325.926+64.7875+325.886+65.1875+325.886+65.5875C325.886+65.8275+325.921+66.1775+325.991+66.6375C326.061+67.0975+326.096+67.4475+326.096+67.6875C326.096+68.4475+325.766+68.8275+325.106+68.8275C324.466+68.8275+324.136+68.5075+324.116+67.8675L324.086+66.8775C324.066+66.2775+323.721+65.7625+323.051+65.3325C322.381+64.9025+321.596+64.6875+320.696+64.6875C319.776+64.6875+319.006+64.9225+318.386+65.3925C317.766+65.8625+317.456+66.4475+317.456+67.1475C317.456+68.4275+318.336+69.1875+320.096+69.4275L321.836+69.6675C325.236+70.1275+326.936+71.5375+326.936+73.8975C326.936+75.3375+326.386+76.5025+325.286+77.3925C324.186+78.2825+322.746+78.7275+320.966+78.7275C319.306+78.7275+317.866+78.2575+316.646+77.3175C316.666+77.5175+316.676+77.7075+316.676+77.8875C316.676+78.6075+316.336+78.9675+315.656+78.9675C314.916+78.9675+314.546+78.5575+314.546+77.7375C314.546+77.8775+314.606+77.3575+314.726+76.1775C314.766+75.8975+314.786+75.6175+314.786+75.3375C314.786+74.8575+314.746+74.4075+314.666+73.9875C314.586+73.5675+314.546+73.2375+314.546+72.9975C314.546+72.2975+314.866+71.9475+315.506+71.9475C315.926+71.9475+316.191+72.0475+316.301+72.2475C316.411+72.4475+316.476+72.9775+316.496+73.8375C316.516+74.6975+316.966+75.3975+317.846+75.9375C318.726+76.4775+319.846+76.7475+321.206+76.7475C322.186+76.7475+322.996+76.4975+323.636+75.9975C324.276+75.4975+324.596+74.8675+324.596+74.1075C324.596+72.7475+323.516+71.9575+321.356+71.7375C319.296+71.5175+317.726+71.1125+316.646+70.5225C315.566+69.9325+315.026+68.8975+315.026+67.4175C315.026+66.0175+315.556+64.8825+316.616+64.0125C317.676+63.1425+319.056+62.7075+320.756+62.7075Z" fill-opacity="0.949881" fill="#000000" opacity="1"/>
</g>
<g opacity="1">
<path d="M1883.25+1978.87L1887.87+1994.05L1892.94+1977.88C1893.2+1977.04+1893.65+1976.62+1894.29+1976.62L1894.44+1976.62C1894.64+1976.62+1894.9+1976.65+1895.22+1976.71C1895.62+1976.81+1895.88+1976.86+1896+1976.86C1896.32+1976.9+1896.76+1976.92+1897.32+1976.92C1897.92+1976.92+1898.39+1976.89+1898.73+1976.83L1899.78+1976.65C1899.84+1976.63+1899.96+1976.62+1900.14+1976.62C1901.06+1976.62+1901.52+1976.97+1901.52+1977.67C1901.52+1978.31+1901.2+1978.63+1900.56+1978.63C1900.4+1978.63+1900.16+1978.61+1899.85+1978.56C1899.54+1978.51+1899.31+1978.48+1899.15+1978.48C1898.13+1978.48+1897.62+1979.23+1897.62+1980.73L1897.62+1982.83L1897.59+1985.47L1897.59+1988.02L1897.62+1992.76C1897.62+1994.26+1898.12+1995.01+1899.12+1995.01C1899.32+1995.01+1899.54+1994.98+1899.78+1994.92C1900.22+1994.88+1900.48+1994.86+1900.56+1994.86C1901.2+1994.86+1901.52+1995.18+1901.52+1995.82C1901.52+1996.54+1901.09+1996.9+1900.23+1996.9C1900.27+1996.9+1900.12+1996.88+1899.78+1996.84C1898.4+1996.68+1897.23+1996.6+1896.27+1996.6C1895.33+1996.6+1894.43+1996.67+1893.57+1996.81C1893.21+1996.87+1892.89+1996.9+1892.61+1996.9C1891.83+1996.9+1891.44+1996.57+1891.44+1995.91C1891.44+1995.23+1891.84+1994.89+1892.64+1994.89C1892.84+1994.89+1892.99+1994.9+1893.09+1994.92C1893.53+1994.96+1893.79+1994.98+1893.87+1994.98C1894.59+1994.98+1895.04+1994.23+1895.22+1992.73C1895.26+1992.41+1895.28+1991.39+1895.28+1989.67C1895.28+1989.01+1895.29+1988.05+1895.31+1986.79L1895.37+1984.09L1895.37+1978.78C1895.37+1978.66+1895.32+1978.6+1895.22+1978.6C1895.16+1978.6+1895.1+1978.66+1895.04+1978.78L1889.52+1995.91C1889.28+1996.67+1888.72+1997.05+1887.84+1997.05C1887.32+1997.05+1886.93+1996.98+1886.68+1996.83C1886.43+1996.68+1886.24+1996.37+1886.1+1995.91L1880.67+1978.78C1880.61+1978.66+1880.54+1978.6+1880.46+1978.6C1880.38+1978.6+1880.34+1978.66+1880.34+1978.78L1880.52+1992.73C1880.54+1994.19+1880.94+1994.92+1881.72+1994.92C1881.94+1994.92+1882.24+1994.88+1882.62+1994.8L1882.98+1994.8C1883.76+1994.8+1884.15+1995.15+1884.15+1995.85C1884.15+1996.55+1883.75+1996.9+1882.95+1996.9C1882.81+1996.9+1882.6+1996.88+1882.32+1996.84C1881.88+1996.78+1881.41+1996.71+1880.91+1996.63C1880.51+1996.57+1880+1996.54+1879.38+1996.54C1878.28+1996.54+1877.57+1996.57+1877.25+1996.63L1875.99+1996.87C1875.95+1996.87+1875.89+1996.88+1875.81+1996.9C1875.73+1996.9+1875.67+1996.9+1875.63+1996.9C1874.71+1996.9+1874.25+1996.55+1874.25+1995.85C1874.25+1995.57+1874.34+1995.34+1874.52+1995.15C1874.7+1994.96+1874.92+1994.86+1875.18+1994.86C1875.4+1994.86+1875.66+1994.89+1875.96+1994.95C1876.26+1995.01+1876.48+1995.04+1876.62+1995.04C1877.64+1995.04+1878.15+1994.29+1878.15+1992.79L1878.15+1980.73C1878.15+1979.23+1877.64+1978.48+1876.62+1978.48C1876.46+1978.48+1876.22+1978.51+1875.9+1978.56C1875.58+1978.61+1875.34+1978.63+1875.18+1978.63C1874.56+1978.63+1874.25+1978.31+1874.25+1977.67C1874.25+1976.97+1874.7+1976.62+1875.6+1976.62C1875.68+1976.62+1875.81+1976.63+1875.99+1976.65L1877.04+1976.77C1877.56+1976.83+1878.05+1976.86+1878.51+1976.86C1878.89+1976.86+1879.4+1976.82+1880.05+1976.74C1880.7+1976.66+1881.18+1976.62+1881.48+1976.62C1882.26+1976.62+1882.78+1977.11+1883.04+1978.09L1883.25+1978.87Z" fill-opacity="0.949881" fill="#000000" opacity="1"/>
<path d="M1909.08+1986.55L1917.54+1979.35C1917.76+1979.17+1917.87+1979+1917.87+1978.84C1917.87+1978.62+1917.68+1978.51+1917.3+1978.51C1917.14+1978.51+1917.03+1978.52+1916.97+1978.54C1916.25+1978.62+1915.72+1978.66+1915.38+1978.66C1914.66+1978.66+1914.3+1978.31+1914.3+1977.61C1914.3+1976.95+1914.73+1976.62+1915.59+1976.62C1916.05+1976.62+1916.46+1976.64+1916.82+1976.68L1918.41+1976.86C1919.11+1976.94+1919.64+1976.98+1920+1976.98C1920.72+1976.98+1921.61+1976.9+1922.67+1976.74C1923.21+1976.66+1923.61+1976.62+1923.87+1976.62C1924.63+1976.62+1925.01+1976.96+1925.01+1977.64C1925.01+1978.32+1924.66+1978.66+1923.96+1978.66C1923.9+1978.66+1923.8+1978.65+1923.66+1978.63C1923.52+1978.63+1923.41+1978.63+1923.33+1978.63C1923.23+1978.61+1923.08+1978.6+1922.88+1978.6C1922.12+1978.6+1921.44+1978.85+1920.84+1979.35L1915.17+1984.09C1914.93+1984.29+1914.81+1984.47+1914.81+1984.63C1914.81+1984.73+1914.91+1984.9+1915.11+1985.14L1915.56+1985.83L1920.36+1992.37C1921.64+1994.11+1922.6+1994.98+1923.24+1994.98C1923.28+1994.98+1923.34+1994.97+1923.42+1994.95C1923.5+1994.95+1923.55+1994.95+1923.57+1994.95C1924.11+1994.89+1924.44+1994.86+1924.56+1994.86C1925.28+1994.86+1925.64+1995.2+1925.64+1995.88C1925.64+1996.56+1925.25+1996.9+1924.47+1996.9C1924.47+1996.9+1923.97+1996.84+1922.97+1996.72C1922.23+1996.64+1921.39+1996.6+1920.45+1996.6C1919.37+1996.6+1918.24+1996.66+1917.06+1996.78C1916.28+1996.86+1915.84+1996.9+1915.74+1996.9C1915+1996.9+1914.63+1996.57+1914.63+1995.91C1914.63+1995.19+1915.02+1994.83+1915.8+1994.83C1916.02+1994.83+1916.33+1994.85+1916.73+1994.89C1917.51+1994.97+1917.96+1995.01+1918.08+1995.01C1918.56+1995.01+1918.8+1994.91+1918.8+1994.71C1918.8+1994.57+1918.71+1994.38+1918.53+1994.14L1912.95+1986.55C1912.83+1986.39+1912.72+1986.31+1912.62+1986.31C1912.54+1986.31+1912.41+1986.39+1912.23+1986.55L1909.08+1989.31C1909.06+1989.67+1909.05+1990.08+1909.05+1990.54C1909.05+1992.28+1909.06+1993.21+1909.08+1993.33C1909.24+1994.47+1909.74+1995.04+1910.58+1995.04C1910.7+1995.04+1910.92+1995.01+1911.24+1994.95C1911.56+1994.89+1911.83+1994.86+1912.05+1994.86C1912.31+1994.86+1912.53+1994.96+1912.71+1995.15C1912.89+1995.34+1912.98+1995.57+1912.98+1995.85C1912.98+1996.55+1912.54+1996.9+1911.66+1996.9C1911.62+1996.9+1911.55+1996.9+1911.45+1996.9C1911.37+1996.88+1911.3+1996.87+1911.24+1996.87L1909.56+1996.63C1909.14+1996.57+1908.49+1996.54+1907.61+1996.54C1906.97+1996.54+1906.44+1996.57+1906.02+1996.63L1904.37+1996.87C1904.33+1996.87+1904.27+1996.88+1904.19+1996.9C1904.11+1996.9+1904.05+1996.9+1904.01+1996.9C1903.11+1996.9+1902.66+1996.55+1902.66+1995.85C1902.66+1995.21+1902.97+1994.89+1903.59+1994.89C1903.77+1994.89+1904.04+1994.92+1904.4+1994.98C1904.64+1995.02+1904.85+1995.04+1905.03+1995.04C1906.03+1995.04+1906.53+1994.29+1906.53+1992.79C1906.53+1992.83+1906.54+1992.13+1906.56+1990.69C1906.56+1990.69+1906.56+1989.81+1906.56+1988.05L1906.56+1985.53C1906.56+1983.75+1906.56+1982.86+1906.56+1982.86L1906.53+1980.76C1906.53+1979.26+1906.03+1978.51+1905.03+1978.51C1904.83+1978.51+1904.62+1978.54+1904.4+1978.6C1904.04+1978.66+1903.77+1978.69+1903.59+1978.69C1902.95+1978.69+1902.63+1978.36+1902.63+1977.7C1902.63+1977+1903.08+1976.65+1903.98+1976.65C1904.08+1976.65+1904.21+1976.66+1904.37+1976.68L1905.81+1976.86C1906.45+1976.94+1906.99+1976.98+1907.43+1976.98C1907.97+1976.98+1908.78+1976.92+1909.86+1976.8C1910.94+1976.68+1911.56+1976.62+1911.72+1976.62C1912.56+1976.62+1912.98+1976.97+1912.98+1977.67C1912.98+1977.95+1912.89+1978.19+1912.71+1978.38C1912.53+1978.57+1912.31+1978.66+1912.05+1978.66C1911.85+1978.66+1911.58+1978.63+1911.24+1978.57C1911.1+1978.53+1910.89+1978.51+1910.61+1978.51C1909.91+1978.51+1909.47+1978.76+1909.29+1979.25C1909.11+1979.74+1909.03+1980.93+1909.05+1982.83L1909.08+1986.55Z" fill-opacity="0.949881" fill="#000000" opacity="1"/>
<path d="M1934.46+1977.97L1942.53+1994.74L1942.53+1982.65C1942.53+1981.09+1942.52+1980.23+1942.5+1980.07C1942.32+1979.03+1941.82+1978.51+1941+1978.51C1940.84+1978.51+1940.6+1978.54+1940.28+1978.59C1939.96+1978.64+1939.72+1978.66+1939.56+1978.66C1939.3+1978.66+1939.07+1978.57+1938.88+1978.38C1938.69+1978.19+1938.6+1977.96+1938.6+1977.7C1938.6+1976.98+1939.05+1976.62+1939.95+1976.62C1940.13+1976.62+1940.26+1976.63+1940.34+1976.65L1941.69+1976.83C1942.29+1976.91+1942.85+1976.95+1943.37+1976.95C1943.89+1976.95+1944.58+1976.89+1945.44+1976.77C1945.74+1976.73+1946.09+1976.68+1946.49+1976.62C1946.53+1976.62+1946.6+1976.61+1946.7+1976.59C1946.78+1976.59+1946.85+1976.59+1946.91+1976.59C1947.77+1976.59+1948.2+1976.94+1948.2+1977.64C1948.2+1978.32+1947.8+1978.66+1947+1978.66C1946.86+1978.66+1946.75+1978.65+1946.67+1978.63L1946.37+1978.63C1945.77+1978.63+1945.38+1978.76+1945.2+1979.02C1945.02+1979.28+1944.91+1979.85+1944.87+1980.73L1944.81+1982.44L1944.75+1985.5L1944.75+1993.51C1944.75+1994.89+1944.59+1995.86+1944.28+1996.42C1943.97+1996.98+1943.44+1997.26+1942.68+1997.26C1941.7+1997.26+1940.87+1996.56+1940.19+1995.16L1932.33+1978.81L1932.33+1992.76C1932.33+1994.26+1932.84+1995.01+1933.86+1995.01C1934.02+1995.01+1934.26+1994.99+1934.58+1994.94C1934.9+1994.89+1935.14+1994.86+1935.3+1994.86C1935.94+1994.86+1936.26+1995.19+1936.26+1995.85C1936.26+1996.55+1935.81+1996.9+1934.91+1996.9C1934.87+1996.9+1934.81+1996.9+1934.73+1996.9C1934.63+1996.88+1934.56+1996.87+1934.52+1996.87L1933.29+1996.69C1932.61+1996.59+1931.97+1996.54+1931.37+1996.54C1930.85+1996.54+1930.18+1996.59+1929.36+1996.69L1927.89+1996.87C1927.85+1996.87+1927.78+1996.88+1927.68+1996.9C1927.58+1996.9+1927.5+1996.9+1927.44+1996.9C1926.58+1996.9+1926.15+1996.55+1926.15+1995.85C1926.15+1995.23+1926.47+1994.92+1927.11+1994.92C1927.21+1994.92+1927.48+1994.94+1927.92+1994.98C1928.14+1995.04+1928.35+1995.07+1928.55+1995.07C1929.57+1995.07+1930.08+1994.32+1930.08+1992.82L1930.08+1990.72L1930.11+1988.08L1930.11+1985.5L1930.08+1980.76C1930.08+1979.26+1929.56+1978.51+1928.52+1978.51C1928.38+1978.51+1928.18+1978.53+1927.92+1978.57C1927.54+1978.63+1927.26+1978.66+1927.08+1978.66C1926.44+1978.66+1926.12+1978.33+1926.12+1977.67C1926.12+1976.97+1926.55+1976.62+1927.41+1976.62C1927.53+1976.62+1927.69+1976.63+1927.89+1976.65C1928.89+1976.75+1929.66+1976.8+1930.2+1976.8C1930.5+1976.8+1930.95+1976.77+1931.55+1976.71C1932.15+1976.65+1932.6+1976.62+1932.9+1976.62C1933.52+1976.62+1933.93+1976.83+1934.13+1977.25L1934.46+1977.97Z" fill-opacity="0.949881" fill="#000000" opacity="1"/>
<path d="M1952.97+1980.73C1952.97+1979.23+1952.46+1978.48+1951.44+1978.48C1951.26+1978.48+1951.05+1978.5+1950.81+1978.54C1950.45+1978.6+1950.18+1978.63+1950+1978.63C1949.38+1978.63+1949.07+1978.31+1949.07+1977.67C1949.07+1976.97+1949.52+1976.62+1950.42+1976.62C1950.52+1976.62+1950.65+1976.63+1950.81+1976.65L1952.4+1976.86C1953+1976.94+1953.64+1976.98+1954.32+1976.98C1954.88+1976.98+1955.44+1976.95+1956+1976.89L1957.95+1976.68C1958.33+1976.64+1958.83+1976.62+1959.45+1976.62C1961.27+1976.62+1962.79+1976.88+1964.01+1977.4C1965.61+1978.08+1966.87+1979.26+1967.8+1980.94C1968.73+1982.62+1969.2+1984.57+1969.2+1986.79C1969.2+1988.75+1968.83+1990.52+1968.09+1992.09C1967.35+1993.66+1966.34+1994.81+1965.06+1995.55C1963.52+1996.45+1961.66+1996.9+1959.48+1996.9C1959.04+1996.9+1958.59+1996.88+1958.13+1996.84L1956.06+1996.66C1955.36+1996.6+1954.63+1996.57+1953.87+1996.57C1953.21+1996.57+1952.67+1996.6+1952.25+1996.66L1950.81+1996.87C1950.77+1996.87+1950.7+1996.88+1950.6+1996.9C1950.5+1996.9+1950.42+1996.9+1950.36+1996.9C1949.5+1996.9+1949.07+1996.55+1949.07+1995.85C1949.07+1995.57+1949.16+1995.34+1949.34+1995.15C1949.52+1994.96+1949.74+1994.86+1950+1994.86C1950.22+1994.86+1950.49+1994.89+1950.81+1994.95C1950.95+1994.99+1951.16+1995.01+1951.44+1995.01C1952.46+1995.01+1952.97+1994.26+1952.97+1992.76L1952.97+1980.73ZM1955.49+1980.43L1955.49+1993.12C1955.49+1994.04+1955.94+1994.6+1956.84+1994.8C1957.14+1994.88+1957.98+1994.92+1959.36+1994.92C1961.76+1994.92+1963.5+1994.27+1964.58+1992.97C1965.88+1991.41+1966.53+1989.35+1966.53+1986.79C1966.53+1984.79+1966.13+1983.1+1965.34+1981.71C1964.55+1980.32+1963.47+1979.42+1962.09+1979.02C1961.21+1978.76+1960.15+1978.63+1958.91+1978.63C1957.33+1978.63+1956.36+1978.72+1956.01+1978.9C1955.66+1979.08+1955.49+1979.59+1955.49+1980.43Z" fill-opacity="0.949881" fill="#000000" opacity="1"/>
<path d="M1979.55+1976.08C1981.51+1976.08+1983.11+1976.71+1984.35+1977.97L1984.35+1977.55C1984.35+1976.77+1984.66+1976.38+1985.28+1976.38C1985.96+1976.38+1986.3+1976.81+1986.3+1977.67L1986.3+1977.85C1986.3+1977.89+1986.27+1978.19+1986.21+1978.75C1986.15+1979.31+1986.12+1979.98+1986.12+1980.76C1986.12+1980.86+1986.14+1981.18+1986.18+1981.72L1986.27+1982.92C1986.29+1983.02+1986.3+1983.16+1986.3+1983.34C1986.3+1984.3+1985.93+1984.78+1985.19+1984.78C1984.41+1984.78+1984.02+1984.38+1984.02+1983.58C1984.02+1983.48+1984.02+1983.43+1984.02+1983.43L1984.08+1982.62C1984.1+1982.34+1984.11+1982.12+1984.11+1981.96C1984.11+1980.76+1983.7+1979.82+1982.89+1979.14C1982.08+1978.46+1980.97+1978.12+1979.55+1978.12C1978.25+1978.12+1977.21+1978.44+1976.44+1979.08C1975.67+1979.72+1975.29+1980.58+1975.29+1981.66C1975.29+1982.92+1975.86+1983.85+1977+1984.45C1977.64+1984.77+1978.76+1985.06+1980.36+1985.32C1982.74+1985.7+1984.37+1986.22+1985.25+1986.88C1986.57+1987.86+1987.23+1989.25+1987.23+1991.05C1987.23+1992.93+1986.55+1994.46+1985.2+1995.64C1983.85+1996.82+1982.11+1997.41+1979.97+1997.41C1977.69+1997.41+1975.8+1996.69+1974.3+1995.25C1974.3+1995.33+1974.31+1995.42+1974.33+1995.52C1974.33+1995.62+1974.33+1995.68+1974.33+1995.7C1974.37+1996.02+1974.39+1996.23+1974.39+1996.33C1974.39+1997.07+1974.04+1997.44+1973.34+1997.44C1972.58+1997.44+1972.2+1997.02+1972.2+1996.18C1972.2+1996.08+1972.21+1996+1972.23+1995.94L1972.35+1994.38C1972.41+1993.6+1972.44+1993.1+1972.44+1992.88C1972.44+1992.48+1972.39+1991.88+1972.29+1991.08C1972.19+1990.28+1972.14+1989.68+1972.14+1989.28C1972.14+1988.38+1972.52+1987.93+1973.28+1987.93C1974.06+1987.93+1974.45+1988.38+1974.45+1989.28L1974.45+1989.82C1974.43+1989.98+1974.42+1990.21+1974.42+1990.51C1974.42+1992.01+1974.9+1993.2+1975.86+1994.08C1976.82+1994.96+1978.12+1995.4+1979.76+1995.4C1981.28+1995.4+1982.49+1995.04+1983.39+1994.32C1984.29+1993.6+1984.74+1992.62+1984.74+1991.38C1984.74+1989.48+1983.54+1988.32+1981.14+1987.9L1979.43+1987.6C1977.73+1987.3+1976.41+1986.95+1975.47+1986.55C1974.61+1986.17+1973.92+1985.58+1973.41+1984.77C1972.9+1983.96+1972.65+1983.04+1972.65+1982.02C1972.65+1980.26+1973.29+1978.83+1974.57+1977.73C1975.85+1976.63+1977.51+1976.08+1979.55+1976.08Z" fill-opacity="0.949881" fill="#000000" opacity="1"/>
</g>
</g>
</svg>
