<?xml version="1.0" encoding="UTF-8" standalone="no"?> <!-- Created with Vectornator Pro for iOS (http://vectornator.io/) --><!DOCTYPE svg PUBLIC "-//W3C//DTD SVG 1.1//EN" "http://www.w3.org/Graphics/SVG/1.1/DTD/svg11.dtd">
<svg style="fill-rule:evenodd;clip-rule:evenodd;stroke-linecap:round;stroke-linejoin:round;" xmlns:vectornator="http://vectornator.io" xmlns:xlink="http://www.w3.org/1999/xlink" xmlns="http://www.w3.org/2000/svg" xml:space="preserve" version="1.1" viewBox="0 0 2048 2048">
<metadata>
<vectornator:setting key="RulersVisible" value="1"/>
<vectornator:setting key="GridSpacing" value="36"/>
<vectornator:setting key="Units" value="Pixels"/>
<vectornator:setting key="DynamicGuides" value="0"/>
<vectornator:setting key="SnapToPoints" value="0"/>
<vectornator:setting key="SnapToGrid" value="0"/>
<vectornator:setting key="ShowGrid" value="0"/>
<vectornator:setting key="SnapToEdges" value="0"/>
</metadata>
<defs/>
<g id="Ebene 2" vectornator:layerName="Ebene 2">
<path d="M-487.391-215.132L2703.09-215.132L2703.09+2554.26L-487.391+2554.26L-487.391-215.132Z" opacity="1" fill="#ffffff"/>
</g>
<g id="Ebene 1" vectornator:layerName="Ebene 1">
<path d="M912.705+584.228L998.292+426.078L1131.35+1015.81L940.037+1015.81L912.705+584.228Z" opacity="1" fill="#ebbd16"/>
<path d="M1290.4+625.161L1335.05+477.905L1455.09+967.432L1263.78+967.432L1290.4+625.161Z" opacity="1" fill="#ebbd16"/>
<path d="M1037.36+641.906L1082.01+494.651L1202.05+984.177L1010.74+984.177L1037.36+641.906Z" opacity="1" fill="#ebbd16"/>
<path d="M1121.09+502.362L1238.31+619.579L1347.17+946.965L1155.86+946.965L1121.09+502.362Z" opacity="1" fill="#ebbd16"/>
<path d="M641.061+597.252L708.034+509.535L828.071+999.061L636.762+999.061L641.061+597.252Z" opacity="1" fill="#ebbd16"/>
<path d="M765.142+302.201L836.414+403.482L956.452+893.008L765.142+893.008L765.142+302.201Z" opacity="1" fill="#ebbd16"/>
<path d="M581.066+836.139L1493.7+836.139L1493.7+1870.26L581.066+1870.26L581.066+836.139Z" fill-opacity="0.949881" fill="#ff3800" opacity="1"/>
<g opacity="1">
<path d="M869.873+1320.68C869.873+1313.73+867.476+1310.25+862.682+1310.25C861.366+1310.25+860.379+1310.34+859.721+1310.53C858.217+1310.81+856.948+1310.95+855.914+1310.95C854.692+1310.95+853.658+1310.51+852.812+1309.62C851.966+1308.72+851.543+1307.62+851.543+1306.3C851.543+1303.01+853.517+1301.37+857.465+1301.37C857.559+1301.37+858.264+1301.41+859.58+1301.51C873.68+1302.45+880.26+1302.92+879.32+1302.92C880.26+1302.92+880.73+1302.92+880.73+1302.92L914.711+1301.93C915.369+1301.93+917.813+1301.79+922.043+1301.51C923.547+1301.41+924.91+1301.37+926.132+1301.37C931.02+1301.37+933.464+1303.53+933.464+1307.85C933.464+1308.6+933.276+1311+932.9+1315.04C932.618+1318.05+932.477+1320.82+932.477+1323.36C932.477+1326.65+932.571+1328.96+932.759+1330.27C933.135+1333+933.323+1335.02+933.323+1336.33C933.323+1339.91+931.631+1341.69+928.247+1341.69C924.863+1341.69+923.171+1339.2+923.171+1334.22L923.171+1326.89C923.171+1318.99+921.526+1314.34+918.236+1312.93C915.792+1311.89+909.494+1311.38+899.342+1311.38C892.668+1311.38+888.72+1311.52+887.498+1311.8C883.456+1312.83+881.435+1315.65+881.435+1320.26L881.435+1326.61C881.435+1327.36+881.435+1328.39+881.435+1329.71C881.341+1331.02+881.294+1331.96+881.294+1332.53L881.294+1334.36C881.294+1338.12+882.14+1340.28+883.832+1340.85C884.49+1341.03+885.618+1341.13+887.216+1341.13L892.997+1341.13C898.919+1341.13+901.88+1339.11+901.88+1335.07C901.88+1333.94+901.739+1332.48+901.457+1330.69C901.175+1328.91+901.034+1327.31+901.034+1325.9C901.034+1322.14+902.726+1320.26+906.11+1320.26C909.494+1320.26+911.186+1322.28+911.186+1326.32C911.186+1327.08+910.857+1329.99+910.199+1335.07C909.635+1339.39+909.353+1343.2+909.353+1346.49C909.353+1348.37+909.541+1351.7+909.917+1356.5C910.011+1357.25+910.246+1358.89+910.622+1361.43C910.904+1363.5+911.045+1365.15+911.045+1366.37C911.045+1369.75+909.353+1371.44+905.969+1371.44C902.679+1371.44+901.034+1369.47+901.034+1365.52C901.034+1364.49+901.151+1362.98+901.386+1361.01C901.621+1359.04+901.739+1357.53+901.739+1356.5C901.739+1352.46+899.06+1350.43+893.702+1350.43L887.357+1350.43C884.631+1350.43+882.962+1350.9+882.351+1351.84C881.74+1352.78+881.435+1354.81+881.435+1357.91L881.435+1366.65C881.435+1368.15+881.482+1370.17+881.576+1372.71C881.67+1375.81+881.717+1377.88+881.717+1378.92C881.811+1382.68+882.563+1385.03+883.973+1385.97C885.007+1386.62+887.451+1386.95+891.305+1386.95L910.481+1386.95C916.027+1386.95+919.834+1386.13+921.902+1384.49C923.97+1382.84+925.004+1379.76+925.004+1375.25C925.004+1373.84+924.933+1371.75+924.792+1368.98C924.651+1366.2+924.581+1364.11+924.581+1362.7C924.581+1358.47+926.273+1356.36+929.657+1356.36C933.229+1356.36+935.015+1358.52+935.015+1362.84C935.015+1364.53+934.921+1367.12+934.733+1370.6C934.545+1374.08+934.451+1376.66+934.451+1378.35C934.451+1379.67+934.521+1381.62+934.662+1384.2C934.803+1386.79+934.874+1388.74+934.874+1390.06C934.874+1394.47+932.712+1396.68+928.388+1396.68C927.354+1396.68+925.709+1396.59+923.453+1396.4C922.325+1396.31+920.257+1396.26+917.249+1396.26C917.907+1396.26+914.241+1396.17+906.251+1395.98C898.261+1395.79+891.352+1395.7+885.524+1395.7C876.688+1395.7+868.04+1395.98+859.58+1396.54C859.204+1396.54+858.781+1396.59+858.311+1396.68C857.841+1396.68+857.559+1396.68+857.465+1396.68C853.517+1396.68+851.543+1394.99+851.543+1391.61C851.543+1388.6+853+1387.09+855.914+1387.09C856.384+1387.09+857.653+1387.19+859.721+1387.38C860.755+1387.66+861.742+1387.8+862.682+1387.8C867.476+1387.8+869.873+1384.27+869.873+1377.22L869.873+1320.68Z" opacity="1" fill="#ebbd16"/>
<path d="M1017.5+1380.04L1012.42+1366.23C1011.86+1364.72+1011.27+1363.78+1010.66+1363.41C1010.05+1363.03+1008.8+1362.84+1006.92+1362.84L981.827+1362.84C979.947+1362.84+978.654+1363.17+977.949+1363.83C977.244+1364.49+976.328+1366.27+975.2+1369.19L971.111+1380.04C970.735+1381.08+970.547+1382.07+970.547+1383.01C970.547+1386.01+972.38+1387.52+976.046+1387.52C976.986+1387.52+978.325+1387.42+980.064+1387.24C981.803+1387.05+983.096+1386.95+983.942+1386.95C987.796+1386.95+989.723+1388.6+989.723+1391.89C989.723+1394.99+987.608+1396.54+983.378+1396.54C982.626+1396.54+981.592+1396.45+980.276+1396.26L973.226+1395.27C971.91+1395.08+969.748+1394.99+966.74+1394.99C963.45+1394.99+961.147+1395.08+959.831+1395.27L953.909+1396.12C951.277+1396.49+949.35+1396.68+948.128+1396.68C944.462+1396.68+942.629+1395.13+942.629+1392.03C942.629+1388.74+944.415+1387.09+947.987+1387.09C948.739+1387.09+949.303+1387.14+949.679+1387.24L951.512+1387.24C954.05+1387.24+955.977+1386.25+957.293+1384.27C957.857+1383.52+958.797+1381.31+960.113+1377.65L986.339+1306.72C987.843+1302.78+990.804+1300.8+995.222+1300.8C999.546+1300.8+1002.41+1302.78+1003.82+1306.72L1029.06+1376.66C1030.66+1381.08+1032.12+1383.99+1033.43+1385.4C1034.75+1386.81+1036.63+1387.52+1039.07+1387.52C1039.82+1387.52+1040.39+1387.47+1040.76+1387.38C1043.4+1387.19+1044.71+1387.09+1044.71+1387.09C1048.28+1387.09+1050.07+1388.6+1050.07+1391.61C1050.07+1394.8+1048.28+1396.4+1044.71+1396.4C1043.68+1396.4+1042.32+1396.31+1040.62+1396.12C1034.7+1395.46+1030.28+1395.13+1027.37+1395.13C1023.89+1395.13+1018.25+1395.51+1010.45+1396.26C1008.48+1396.45+1006.97+1396.54+1005.94+1396.54C1002.18+1396.54+1000.3+1394.94+1000.3+1391.75C1000.3+1388.55+1002.37+1386.95+1006.5+1386.95C1007.35+1386.95+1008.59+1387.05+1010.24+1387.24C1011.88+1387.42+1013.13+1387.52+1013.97+1387.52C1017.08+1387.52+1018.63+1386.25+1018.63+1383.71C1018.63+1383.33+1018.25+1382.11+1017.5+1380.04ZM1007.35+1351.28L994.658+1312.36L981.686+1351.28C981.498+1351.84+981.404+1352.17+981.404+1352.27C981.404+1353.11+982.109+1353.54+983.519+1353.54L1005.94+1353.54C1007.07+1353.54+1007.63+1353.16+1007.63+1352.41C1007.63+1352.22+1007.54+1351.84+1007.35+1351.28Z" opacity="1" fill="#ebbd16"/>
<path d="M1092.23+1298.83C1101.44+1298.83+1108.96+1301.79+1114.79+1307.71L1114.79+1305.74C1114.79+1302.07+1116.25+1300.24+1119.16+1300.24C1122.36+1300.24+1123.95+1302.26+1123.95+1306.3L1123.95+1307.15C1123.95+1307.34+1123.81+1308.75+1123.53+1311.38C1123.25+1314.01+1123.11+1317.16+1123.11+1320.82C1123.11+1321.29+1123.2+1322.8+1123.39+1325.34L1123.81+1330.98C1123.91+1331.45+1123.95+1332.1+1123.95+1332.95C1123.95+1337.46+1122.22+1339.72+1118.74+1339.72C1115.07+1339.72+1113.24+1337.84+1113.24+1334.08C1113.24+1333.61+1113.24+1333.37+1113.24+1333.37L1113.52+1329.57C1113.61+1328.25+1113.66+1327.22+1113.66+1326.46C1113.66+1320.82+1111.76+1316.41+1107.95+1313.21C1104.14+1310.01+1098.9+1308.42+1092.23+1308.42C1086.12+1308.42+1081.26+1309.92+1077.64+1312.93C1074.02+1315.94+1072.21+1319.98+1072.21+1325.05C1072.21+1330.98+1074.89+1335.35+1080.24+1338.17C1083.25+1339.67+1088.52+1341.03+1096.04+1342.26C1107.22+1344.04+1114.88+1346.49+1119.02+1349.59C1125.22+1354.19+1128.33+1360.73+1128.33+1369.19C1128.33+1378.02+1125.15+1385.21+1118.81+1390.76C1112.46+1396.31+1104.26+1399.08+1094.2+1399.08C1083.49+1399.08+1074.6+1395.7+1067.55+1388.93C1067.55+1389.3+1067.6+1389.73+1067.7+1390.2C1067.7+1390.67+1067.7+1390.95+1067.7+1391.04C1067.88+1392.55+1067.98+1393.53+1067.98+1394C1067.98+1397.48+1066.33+1399.22+1063.04+1399.22C1059.47+1399.22+1057.68+1397.25+1057.68+1393.3C1057.68+1392.83+1057.73+1392.45+1057.83+1392.17L1058.39+1384.84C1058.67+1381.17+1058.81+1378.82+1058.81+1377.79C1058.81+1375.91+1058.58+1373.09+1058.11+1369.33C1057.64+1365.57+1057.4+1362.75+1057.4+1360.87C1057.4+1356.64+1059.19+1354.52+1062.76+1354.52C1066.43+1354.52+1068.26+1356.64+1068.26+1360.87L1068.26+1363.41C1068.17+1364.16+1068.12+1365.24+1068.12+1366.65C1068.12+1373.7+1070.37+1379.29+1074.89+1383.43C1079.4+1387.56+1085.51+1389.63+1093.22+1389.63C1100.36+1389.63+1106.05+1387.94+1110.28+1384.56C1114.51+1381.17+1116.62+1376.57+1116.62+1370.74C1116.62+1361.81+1110.98+1356.36+1099.7+1354.38L1091.67+1352.97C1083.68+1351.56+1077.47+1349.92+1073.05+1348.04C1069.01+1346.25+1065.79+1343.46+1063.4+1339.65C1061+1335.84+1059.8+1331.54+1059.8+1326.75C1059.8+1318.47+1062.81+1311.75+1068.82+1306.58C1074.84+1301.41+1082.64+1298.83+1092.23+1298.83Z" opacity="1" fill="#ebbd16"/>
<path d="M1182.05+1367.92C1182.05+1367.54+1182.05+1366.65+1182.05+1365.24C1181.95+1363.74+1181.91+1362.47+1181.91+1361.43L1154.55+1318.15C1152.77+1315.33+1151.64+1313.68+1151.17+1313.21C1149.76+1311.8+1148.02+1311.1+1145.95+1311.1C1144.82+1311.1+1143.98+1311.14+1143.41+1311.24C1143.13+1311.24+1142.71+1311.24+1142.14+1311.24C1141.49+1311.33+1141.02+1311.38+1140.73+1311.38C1136.41+1311.38+1134.25+1309.73+1134.25+1306.44C1134.25+1303.06+1136.13+1301.37+1139.89+1301.37C1141.39+1301.37+1143.27+1301.55+1145.53+1301.93C1150.04+1302.68+1154.27+1303.06+1158.22+1303.06C1161.13+1303.06+1165.5+1302.64+1171.33+1301.79C1173.3+1301.51+1175+1301.37+1176.41+1301.37C1180.26+1301.37+1182.19+1303.01+1182.19+1306.3C1182.19+1309.5+1179.88+1311.1+1175.28+1311.1L1173.87+1310.95L1170.34+1310.95L1167.52+1310.81C1166.4+1310.72+1165.83+1311.1+1165.83+1311.94C1165.83+1312.32+1165.88+1312.58+1165.97+1312.72C1166.07+1312.86+1166.3+1313.26+1166.68+1313.92L1188.25+1350.58L1210.11+1313.92C1210.58+1313.16+1210.81+1312.41+1210.81+1311.66C1210.81+1310.81+1210.2+1310.39+1208.98+1310.39L1208.7+1310.39L1206.16+1310.53L1202.49+1310.95C1200.89+1311.14+1199.67+1311.24+1198.83+1311.24C1194.97+1311.24+1193.04+1309.59+1193.04+1306.3C1193.04+1303.01+1194.92+1301.37+1198.68+1301.37C1200.09+1301.37+1201.79+1301.51+1203.76+1301.79C1209.02+1302.54+1213.58+1302.92+1217.44+1302.92C1221.48+1302.92+1225.94+1302.54+1230.83+1301.79C1232.71+1301.51+1234.31+1301.37+1235.63+1301.37C1239.2+1301.37+1240.98+1303.01+1240.98+1306.3C1240.98+1309.31+1239.25+1310.81+1235.77+1310.81C1234.36+1310.81+1233.28+1310.72+1232.52+1310.53C1231.02+1310.34+1229.99+1310.25+1229.42+1310.25C1226.98+1310.25+1225+1311.38+1223.5+1313.63L1221.39+1316.88L1193.61+1360.45L1193.61+1366.37C1193.61+1375.96+1194.01+1381.92+1194.81+1384.27C1195.61+1386.62+1197.6+1387.8+1200.8+1387.8C1201.55+1387.8+1202.7+1387.68+1204.25+1387.45C1205.81+1387.21+1206.96+1387.09+1207.71+1387.09C1210.62+1387.09+1212.08+1388.6+1212.08+1391.61C1212.08+1394.99+1209.96+1396.68+1205.73+1396.68C1205.64+1396.68+1205.36+1396.68+1204.89+1396.68C1204.51+1396.59+1204.18+1396.54+1203.9+1396.54L1196.15+1395.55C1193.23+1395.18+1190.37+1394.99+1187.55+1394.99C1184.54+1394.99+1181.67+1395.18+1178.94+1395.55L1171.75+1396.54C1171.57+1396.54+1171.28+1396.59+1170.91+1396.68C1170.44+1396.68+1170.11+1396.68+1169.92+1396.68C1165.69+1396.68+1163.58+1395.04+1163.58+1391.75C1163.58+1388.65+1165.08+1387.09+1168.09+1387.09C1168.84+1387.09+1169.94+1387.21+1171.4+1387.45C1172.86+1387.68+1173.96+1387.8+1174.71+1387.8C1178.66+1387.8+1181.06+1385.31+1181.91+1380.33C1182+1379.48+1182.05+1375.34+1182.05+1367.92Z" opacity="1" fill="#ebbd16"/>
</g>
</g>
</svg>
